solid CATIA STL
  facet normal  0.000000e+00  0.000000e+00 -1.000000e+00
    outer loop
      vertex  4.000000e+01  1.005000e+01 -1.005000e+01
      vertex  0.000000e+00  1.005000e+01 -1.005000e+01
      vertex  4.000000e+01  1.405000e+01 -1.005000e+01
    endloop
  endfacet
  facet normal  -0.000000e+00  0.000000e+00 -1.000000e+00
    outer loop
      vertex  4.000000e+01  1.405000e+01 -1.005000e+01
      vertex  0.000000e+00  1.005000e+01 -1.005000e+01
      vertex  0.000000e+00  1.405000e+01 -1.005000e+01
    endloop
  endfacet
  facet normal  0.000000e+00  0.000000e+00 -1.000000e+00
    outer loop
      vertex  4.000000e+01 -1.405000e+01 -1.005000e+01
      vertex  0.000000e+00 -1.405000e+01 -1.005000e+01
      vertex  4.000000e+01 -1.005000e+01 -1.005000e+01
    endloop
  endfacet
  facet normal  -0.000000e+00  0.000000e+00 -1.000000e+00
    outer loop
      vertex  4.000000e+01 -1.005000e+01 -1.005000e+01
      vertex  0.000000e+00 -1.405000e+01 -1.005000e+01
      vertex  0.000000e+00 -1.005000e+01 -1.005000e+01
    endloop
  endfacet
  facet normal  0.000000e+00  0.000000e+00  1.000000e+00
    outer loop
      vertex  4.000000e+01 -1.405000e+01  5.405000e+01
      vertex  4.000000e+01  1.405000e+01  5.405000e+01
      vertex  0.000000e+00 -1.405000e+01  5.405000e+01
    endloop
  endfacet
  facet normal  0.000000e+00  0.000000e+00  1.000000e+00
    outer loop
      vertex  0.000000e+00 -1.405000e+01  5.405000e+01
      vertex  4.000000e+01  1.405000e+01  5.405000e+01
      vertex  0.000000e+00  1.405000e+01  5.405000e+01
    endloop
  endfacet
  facet normal  0.000000e+00 -1.000000e+00  0.000000e+00
    outer loop
      vertex  1.206250e+01 -1.405000e+01  3.405000e+01
      vertex  0.000000e+00 -1.405000e+01  5.405000e+01
      vertex  0.000000e+00 -1.405000e+01 -1.005000e+01
    endloop
  endfacet
  facet normal  0.000000e+00 -1.000000e+00  0.000000e+00
    outer loop
      vertex  1.206250e+01 -1.405000e+01  3.405000e+01
      vertex  0.000000e+00 -1.405000e+01 -1.005000e+01
      vertex  8.402536e+00 -1.405000e+01  1.889892e+00
    endloop
  endfacet
  facet normal  0.000000e+00 -1.000000e+00  0.000000e+00
    outer loop
      vertex  1.206250e+01 -1.405000e+01  3.405000e+01
      vertex  8.402536e+00 -1.405000e+01  1.889892e+00
      vertex  9.177393e+00 -1.405000e+01  2.514053e+00
    endloop
  endfacet
  facet normal  0.000000e+00 -1.000000e+00  0.000000e+00
    outer loop
      vertex  1.206250e+01 -1.405000e+01  3.405000e+01
      vertex  9.177393e+00 -1.405000e+01  2.514053e+00
      vertex  1.016665e+01 -1.405000e+01  2.407496e+00
    endloop
  endfacet
  facet normal  0.000000e+00 -1.000000e+00  0.000000e+00
    outer loop
      vertex  1.206250e+01 -1.405000e+01  3.405000e+01
      vertex  1.016665e+01 -1.405000e+01  2.407496e+00
      vertex  1.079081e+01 -1.405000e+01  1.632640e+00
    endloop
  endfacet
  facet normal  0.000000e+00 -9.999999e-01  0.000000e+00
    outer loop
      vertex  0.000000e+00 -1.405000e+01  5.405000e+01
      vertex  1.206250e+01 -1.405000e+01  3.405000e+01
      vertex  1.284856e+01 -1.405000e+01  3.749395e+01
    endloop
  endfacet
  facet normal  0.000000e+00 -1.000000e+00  0.000000e+00
    outer loop
      vertex  0.000000e+00 -1.405000e+01  5.405000e+01
      vertex  1.284856e+01 -1.405000e+01  3.749395e+01
      vertex  1.505105e+01 -1.405000e+01  4.025579e+01
    endloop
  endfacet
  facet normal  0.000000e+00 -1.000000e+00  0.000000e+00
    outer loop
      vertex  0.000000e+00 -1.405000e+01  5.405000e+01
      vertex  1.505105e+01 -1.405000e+01  4.025579e+01
      vertex  1.823374e+01 -1.405000e+01  4.178849e+01
    endloop
  endfacet
  facet normal  0.000000e+00 -1.000000e+00  0.000000e+00
    outer loop
      vertex  0.000000e+00 -1.405000e+01  5.405000e+01
      vertex  1.823374e+01 -1.405000e+01  4.178849e+01
      vertex  2.176626e+01 -1.405000e+01  4.178849e+01
    endloop
  endfacet
  facet normal  0.000000e+00 -1.000000e+00  0.000000e+00
    outer loop
      vertex  0.000000e+00 -1.405000e+01  5.405000e+01
      vertex  2.176626e+01 -1.405000e+01  4.178849e+01
      vertex  4.000000e+01 -1.405000e+01  5.405000e+01
    endloop
  endfacet
  facet normal  0.000000e+00 -1.000000e+00  -0.000000e+00
    outer loop
      vertex  4.000000e+01 -1.405000e+01 -1.005000e+01
      vertex  4.000000e+01 -1.405000e+01  5.405000e+01
      vertex  2.793750e+01 -1.405000e+01  3.405000e+01
    endloop
  endfacet
  facet normal  0.000000e+00 -9.999999e-01  0.000000e+00
    outer loop
      vertex  4.000000e+01 -1.405000e+01 -1.005000e+01
      vertex  2.793750e+01 -1.405000e+01  3.405000e+01
      vertex  3.137526e+01 -1.405000e+01  1.601304e+00
    endloop
  endfacet
  facet normal  0.000000e+00 -1.000000e+00  -0.000000e+00
    outer loop
      vertex  4.000000e+01 -1.405000e+01 -1.005000e+01
      vertex  3.137526e+01 -1.405000e+01  1.601304e+00
      vertex  3.126871e+01 -1.405000e+01  6.120498e-01
    endloop
  endfacet
  facet normal  0.000000e+00 -1.000000e+00  -0.000000e+00
    outer loop
      vertex  4.000000e+01 -1.405000e+01 -1.005000e+01
      vertex  3.126871e+01 -1.405000e+01  6.120498e-01
      vertex  3.049385e+01 -1.405000e+01 -1.211147e-02
    endloop
  endfacet
  facet normal  0.000000e+00 -1.000000e+00  -0.000000e+00
    outer loop
      vertex  4.000000e+01 -1.405000e+01 -1.005000e+01
      vertex  3.049385e+01 -1.405000e+01 -1.211147e-02
      vertex  0.000000e+00 -1.405000e+01 -1.005000e+01
    endloop
  endfacet
  facet normal  -0.000000e+00 -9.999999e-01  0.000000e+00
    outer loop
      vertex  0.000000e+00 -1.405000e+01 -1.005000e+01
      vertex  3.049385e+01 -1.405000e+01 -1.211147e-02
      vertex  2.950460e+01 -1.405000e+01  9.444571e-02
    endloop
  endfacet
  facet normal  -0.000000e+00 -1.000000e+00  0.000000e+00
    outer loop
      vertex  0.000000e+00 -1.405000e+01 -1.005000e+01
      vertex  2.950460e+01 -1.405000e+01  9.444571e-02
      vertex  2.888044e+01 -1.405000e+01  8.693017e-01
    endloop
  endfacet
  facet normal  0.000000e+00 -1.000000e+00  0.000000e+00
    outer loop
      vertex  0.000000e+00 -1.405000e+01 -1.005000e+01
      vertex  2.888044e+01 -1.405000e+01  8.693017e-01
      vertex  1.068425e+01 -1.405000e+01  6.433853e-01
    endloop
  endfacet
  facet normal  0.000000e+00 -1.000000e+00  0.000000e+00
    outer loop
      vertex  0.000000e+00 -1.405000e+01 -1.005000e+01
      vertex  1.068425e+01 -1.405000e+01  6.433853e-01
      vertex  9.909395e+00 -1.405000e+01  1.922400e-02
    endloop
  endfacet
  facet normal  -0.000000e+00 -1.000000e+00  0.000000e+00
    outer loop
      vertex  0.000000e+00 -1.405000e+01 -1.005000e+01
      vertex  9.909395e+00 -1.405000e+01  1.922400e-02
      vertex  8.920141e+00 -1.405000e+01  1.257812e-01
    endloop
  endfacet
  facet normal  -0.000000e+00 -1.000000e+00  0.000000e+00
    outer loop
      vertex  0.000000e+00 -1.405000e+01 -1.005000e+01
      vertex  8.920141e+00 -1.405000e+01  1.257812e-01
      vertex  8.295979e+00 -1.405000e+01  9.006371e-01
    endloop
  endfacet
  facet normal  -0.000000e+00 -1.000000e+00  0.000000e+00
    outer loop
      vertex  0.000000e+00 -1.405000e+01 -1.005000e+01
      vertex  8.295979e+00 -1.405000e+01  9.006371e-01
      vertex  8.402536e+00 -1.405000e+01  1.889892e+00
    endloop
  endfacet
  facet normal  0.000000e+00 -1.000000e+00  0.000000e+00
    outer loop
      vertex  1.079081e+01 -1.405000e+01  1.632640e+00
      vertex  1.068425e+01 -1.405000e+01  6.433853e-01
      vertex  2.888044e+01 -1.405000e+01  8.693017e-01
    endloop
  endfacet
  facet normal  0.000000e+00 -1.000000e+00  0.000000e+00
    outer loop
      vertex  1.079081e+01 -1.405000e+01  1.632640e+00
      vertex  2.888044e+01 -1.405000e+01  8.693017e-01
      vertex  2.898699e+01 -1.405000e+01  1.858556e+00
    endloop
  endfacet
  facet normal  -0.000000e+00 -1.000000e+00  0.000000e+00
    outer loop
      vertex  1.079081e+01 -1.405000e+01  1.632640e+00
      vertex  2.898699e+01 -1.405000e+01  1.858556e+00
      vertex  2.715144e+01 -1.405000e+01  3.060605e+01
    endloop
  endfacet
  facet normal  0.000000e+00 -1.000000e+00  0.000000e+00
    outer loop
      vertex  1.079081e+01 -1.405000e+01  1.632640e+00
      vertex  2.715144e+01 -1.405000e+01  3.060605e+01
      vertex  2.494895e+01 -1.405000e+01  2.784421e+01
    endloop
  endfacet
  facet normal  0.000000e+00 -9.999999e-01  0.000000e+00
    outer loop
      vertex  1.079081e+01 -1.405000e+01  1.632640e+00
      vertex  2.494895e+01 -1.405000e+01  2.784421e+01
      vertex  2.176626e+01 -1.405000e+01  2.631151e+01
    endloop
  endfacet
  facet normal  -0.000000e+00 -1.000000e+00  0.000000e+00
    outer loop
      vertex  1.079081e+01 -1.405000e+01  1.632640e+00
      vertex  2.176626e+01 -1.405000e+01  2.631151e+01
      vertex  1.823374e+01 -1.405000e+01  2.631151e+01
    endloop
  endfacet
  facet normal  -0.000000e+00 -1.000000e+00  0.000000e+00
    outer loop
      vertex  1.079081e+01 -1.405000e+01  1.632640e+00
      vertex  1.823374e+01 -1.405000e+01  2.631151e+01
      vertex  1.505105e+01 -1.405000e+01  2.784421e+01
    endloop
  endfacet
  facet normal  -0.000000e+00 -1.000000e+00  0.000000e+00
    outer loop
      vertex  1.079081e+01 -1.405000e+01  1.632640e+00
      vertex  1.505105e+01 -1.405000e+01  2.784421e+01
      vertex  1.284856e+01 -1.405000e+01  3.060605e+01
    endloop
  endfacet
  facet normal  -0.000000e+00 -1.000000e+00  0.000000e+00
    outer loop
      vertex  1.079081e+01 -1.405000e+01  1.632640e+00
      vertex  1.284856e+01 -1.405000e+01  3.060605e+01
      vertex  1.206250e+01 -1.405000e+01  3.405000e+01
    endloop
  endfacet
  facet normal  0.000000e+00 -1.000000e+00  0.000000e+00
    outer loop
      vertex  2.793750e+01 -1.405000e+01  3.405000e+01
      vertex  2.715144e+01 -1.405000e+01  3.060605e+01
      vertex  2.898699e+01 -1.405000e+01  1.858556e+00
    endloop
  endfacet
  facet normal  0.000000e+00 -1.000000e+00  0.000000e+00
    outer loop
      vertex  2.793750e+01 -1.405000e+01  3.405000e+01
      vertex  2.898699e+01 -1.405000e+01  1.858556e+00
      vertex  2.976185e+01 -1.405000e+01  2.482718e+00
    endloop
  endfacet
  facet normal  0.000000e+00 -9.999999e-01  0.000000e+00
    outer loop
      vertex  2.793750e+01 -1.405000e+01  3.405000e+01
      vertex  2.976185e+01 -1.405000e+01  2.482718e+00
      vertex  3.075110e+01 -1.405000e+01  2.376160e+00
    endloop
  endfacet
  facet normal  0.000000e+00 -1.000000e+00  0.000000e+00
    outer loop
      vertex  2.793750e+01 -1.405000e+01  3.405000e+01
      vertex  3.075110e+01 -1.405000e+01  2.376160e+00
      vertex  3.137526e+01 -1.405000e+01  1.601304e+00
    endloop
  endfacet
  facet normal  0.000000e+00 -1.000000e+00  0.000000e+00
    outer loop
      vertex  4.000000e+01 -1.405000e+01  5.405000e+01
      vertex  2.176626e+01 -1.405000e+01  4.178849e+01
      vertex  2.494895e+01 -1.405000e+01  4.025579e+01
    endloop
  endfacet
  facet normal  0.000000e+00 -1.000000e+00  0.000000e+00
    outer loop
      vertex  4.000000e+01 -1.405000e+01  5.405000e+01
      vertex  2.494895e+01 -1.405000e+01  4.025579e+01
      vertex  2.715144e+01 -1.405000e+01  3.749395e+01
    endloop
  endfacet
  facet normal  0.000000e+00 -1.000000e+00  0.000000e+00
    outer loop
      vertex  4.000000e+01 -1.405000e+01  5.405000e+01
      vertex  2.715144e+01 -1.405000e+01  3.749395e+01
      vertex  2.793750e+01 -1.405000e+01  3.405000e+01
    endloop
  endfacet
  facet normal  1.000000e+00  0.000000e+00  0.000000e+00
    outer loop
      vertex  4.000000e+01  1.005000e+01 -1.005000e+01
      vertex  4.000000e+01  1.405000e+01 -1.005000e+01
      vertex  4.000000e+01  1.005000e+01  1.005000e+01
    endloop
  endfacet
  facet normal  1.000000e+00  -0.000000e+00  0.000000e+00
    outer loop
      vertex  4.000000e+01  1.005000e+01  1.005000e+01
      vertex  4.000000e+01  1.405000e+01 -1.005000e+01
      vertex  4.000000e+01  1.405000e+01  5.405000e+01
    endloop
  endfacet
  facet normal  9.999999e-01  0.000000e+00  0.000000e+00
    outer loop
      vertex  4.000000e+01  1.005000e+01  1.005000e+01
      vertex  4.000000e+01  1.405000e+01  5.405000e+01
      vertex  4.000000e+01 -1.005000e+01  1.005000e+01
    endloop
  endfacet
  facet normal  9.999999e-01  0.000000e+00  -0.000000e+00
    outer loop
      vertex  4.000000e+01 -1.005000e+01  1.005000e+01
      vertex  4.000000e+01  1.405000e+01  5.405000e+01
      vertex  4.000000e+01 -1.405000e+01  5.405000e+01
    endloop
  endfacet
  facet normal  1.000000e+00  0.000000e+00  0.000000e+00
    outer loop
      vertex  4.000000e+01 -1.005000e+01  1.005000e+01
      vertex  4.000000e+01 -1.405000e+01  5.405000e+01
      vertex  4.000000e+01 -1.005000e+01 -1.005000e+01
    endloop
  endfacet
  facet normal  1.000000e+00  0.000000e+00  0.000000e+00
    outer loop
      vertex  4.000000e+01 -1.005000e+01 -1.005000e+01
      vertex  4.000000e+01 -1.405000e+01  5.405000e+01
      vertex  4.000000e+01 -1.405000e+01 -1.005000e+01
    endloop
  endfacet
  facet normal -1.000000e+00  0.000000e+00  0.000000e+00
    outer loop
      vertex  0.000000e+00  1.005000e+01  1.005000e+01
      vertex  0.000000e+00  1.405000e+01 -1.005000e+01
      vertex  0.000000e+00  1.005000e+01 -1.005000e+01
    endloop
  endfacet
  facet normal -1.000000e+00  0.000000e+00  0.000000e+00
    outer loop
      vertex  0.000000e+00  1.405000e+01 -1.005000e+01
      vertex  0.000000e+00  1.005000e+01  1.005000e+01
      vertex  0.000000e+00  1.405000e+01  5.405000e+01
    endloop
  endfacet
  facet normal -9.999999e-01  0.000000e+00  0.000000e+00
    outer loop
      vertex  0.000000e+00  1.405000e+01  5.405000e+01
      vertex  0.000000e+00  1.005000e+01  1.005000e+01
      vertex  0.000000e+00 -1.005000e+01  1.005000e+01
    endloop
  endfacet
  facet normal -9.999999e-01  0.000000e+00  0.000000e+00
    outer loop
      vertex  0.000000e+00  1.405000e+01  5.405000e+01
      vertex  0.000000e+00 -1.005000e+01  1.005000e+01
      vertex  0.000000e+00 -1.405000e+01  5.405000e+01
    endloop
  endfacet
  facet normal -1.000000e+00  0.000000e+00  0.000000e+00
    outer loop
      vertex  0.000000e+00 -1.405000e+01  5.405000e+01
      vertex  0.000000e+00 -1.005000e+01  1.005000e+01
      vertex  0.000000e+00 -1.005000e+01 -1.005000e+01
    endloop
  endfacet
  facet normal -1.000000e+00  0.000000e+00  0.000000e+00
    outer loop
      vertex  0.000000e+00 -1.405000e+01  5.405000e+01
      vertex  0.000000e+00 -1.005000e+01 -1.005000e+01
      vertex  0.000000e+00 -1.405000e+01 -1.005000e+01
    endloop
  endfacet
  facet normal  0.000000e+00  1.000000e+00  -0.000000e+00
    outer loop
      vertex  1.206250e+01  1.405000e+01  3.405000e+01
      vertex  1.079081e+01  1.405000e+01  1.632640e+00
      vertex  1.016665e+01  1.405000e+01  2.407496e+00
    endloop
  endfacet
  facet normal  0.000000e+00  1.000000e+00  -0.000000e+00
    outer loop
      vertex  1.206250e+01  1.405000e+01  3.405000e+01
      vertex  1.016665e+01  1.405000e+01  2.407496e+00
      vertex  9.177393e+00  1.405000e+01  2.514053e+00
    endloop
  endfacet
  facet normal  0.000000e+00  1.000000e+00  -0.000000e+00
    outer loop
      vertex  1.206250e+01  1.405000e+01  3.405000e+01
      vertex  9.177393e+00  1.405000e+01  2.514053e+00
      vertex  8.402536e+00  1.405000e+01  1.889892e+00
    endloop
  endfacet
  facet normal  0.000000e+00  1.000000e+00  -0.000000e+00
    outer loop
      vertex  1.206250e+01  1.405000e+01  3.405000e+01
      vertex  8.402536e+00  1.405000e+01  1.889892e+00
      vertex  0.000000e+00  1.405000e+01 -1.005000e+01
    endloop
  endfacet
  facet normal  0.000000e+00  1.000000e+00  0.000000e+00
    outer loop
      vertex  1.206250e+01  1.405000e+01  3.405000e+01
      vertex  0.000000e+00  1.405000e+01 -1.005000e+01
      vertex  0.000000e+00  1.405000e+01  5.405000e+01
    endloop
  endfacet
  facet normal  0.000000e+00  1.000000e+00  0.000000e+00
    outer loop
      vertex  0.000000e+00  1.405000e+01  5.405000e+01
      vertex  4.000000e+01  1.405000e+01  5.405000e+01
      vertex  2.176626e+01  1.405000e+01  4.178849e+01
    endloop
  endfacet
  facet normal  0.000000e+00  1.000000e+00  0.000000e+00
    outer loop
      vertex  0.000000e+00  1.405000e+01  5.405000e+01
      vertex  2.176626e+01  1.405000e+01  4.178849e+01
      vertex  1.823374e+01  1.405000e+01  4.178849e+01
    endloop
  endfacet
  facet normal  0.000000e+00  1.000000e+00  0.000000e+00
    outer loop
      vertex  0.000000e+00  1.405000e+01  5.405000e+01
      vertex  1.823374e+01  1.405000e+01  4.178849e+01
      vertex  1.505105e+01  1.405000e+01  4.025579e+01
    endloop
  endfacet
  facet normal  0.000000e+00  1.000000e+00  0.000000e+00
    outer loop
      vertex  0.000000e+00  1.405000e+01  5.405000e+01
      vertex  1.505105e+01  1.405000e+01  4.025579e+01
      vertex  1.284856e+01  1.405000e+01  3.749395e+01
    endloop
  endfacet
  facet normal  0.000000e+00  9.999999e-01  0.000000e+00
    outer loop
      vertex  0.000000e+00  1.405000e+01  5.405000e+01
      vertex  1.284856e+01  1.405000e+01  3.749395e+01
      vertex  1.206250e+01  1.405000e+01  3.405000e+01
    endloop
  endfacet
  facet normal  0.000000e+00  1.000000e+00  0.000000e+00
    outer loop
      vertex  4.000000e+01  1.405000e+01 -1.005000e+01
      vertex  0.000000e+00  1.405000e+01 -1.005000e+01
      vertex  3.049385e+01  1.405000e+01 -1.211147e-02
    endloop
  endfacet
  facet normal  -0.000000e+00  1.000000e+00  0.000000e+00
    outer loop
      vertex  4.000000e+01  1.405000e+01 -1.005000e+01
      vertex  3.049385e+01  1.405000e+01 -1.211147e-02
      vertex  3.126871e+01  1.405000e+01  6.120498e-01
    endloop
  endfacet
  facet normal  -0.000000e+00  1.000000e+00  0.000000e+00
    outer loop
      vertex  4.000000e+01  1.405000e+01 -1.005000e+01
      vertex  3.126871e+01  1.405000e+01  6.120498e-01
      vertex  3.137526e+01  1.405000e+01  1.601304e+00
    endloop
  endfacet
  facet normal  -0.000000e+00  1.000000e+00  -0.000000e+00
    outer loop
      vertex  4.000000e+01  1.405000e+01 -1.005000e+01
      vertex  3.137526e+01  1.405000e+01  1.601304e+00
      vertex  2.793750e+01  1.405000e+01  3.405000e+01
    endloop
  endfacet
  facet normal  -0.000000e+00  1.000000e+00  0.000000e+00
    outer loop
      vertex  4.000000e+01  1.405000e+01 -1.005000e+01
      vertex  2.793750e+01  1.405000e+01  3.405000e+01
      vertex  4.000000e+01  1.405000e+01  5.405000e+01
    endloop
  endfacet
  facet normal  0.000000e+00  9.999999e-01  0.000000e+00
    outer loop
      vertex  0.000000e+00  1.405000e+01 -1.005000e+01
      vertex  8.402536e+00  1.405000e+01  1.889892e+00
      vertex  8.295979e+00  1.405000e+01  9.006371e-01
    endloop
  endfacet
  facet normal  0.000000e+00  1.000000e+00  0.000000e+00
    outer loop
      vertex  0.000000e+00  1.405000e+01 -1.005000e+01
      vertex  8.295979e+00  1.405000e+01  9.006371e-01
      vertex  8.920141e+00  1.405000e+01  1.257812e-01
    endloop
  endfacet
  facet normal  0.000000e+00  1.000000e+00  0.000000e+00
    outer loop
      vertex  0.000000e+00  1.405000e+01 -1.005000e+01
      vertex  8.920141e+00  1.405000e+01  1.257812e-01
      vertex  9.909395e+00  1.405000e+01  1.922400e-02
    endloop
  endfacet
  facet normal  -0.000000e+00  1.000000e+00  0.000000e+00
    outer loop
      vertex  0.000000e+00  1.405000e+01 -1.005000e+01
      vertex  9.909395e+00  1.405000e+01  1.922400e-02
      vertex  1.068425e+01  1.405000e+01  6.433853e-01
    endloop
  endfacet
  facet normal  -0.000000e+00  1.000000e+00  0.000000e+00
    outer loop
      vertex  0.000000e+00  1.405000e+01 -1.005000e+01
      vertex  1.068425e+01  1.405000e+01  6.433853e-01
      vertex  2.888044e+01  1.405000e+01  8.693017e-01
    endloop
  endfacet
  facet normal  0.000000e+00  1.000000e+00  0.000000e+00
    outer loop
      vertex  0.000000e+00  1.405000e+01 -1.005000e+01
      vertex  2.888044e+01  1.405000e+01  8.693017e-01
      vertex  2.950460e+01  1.405000e+01  9.444571e-02
    endloop
  endfacet
  facet normal  0.000000e+00  9.999999e-01  0.000000e+00
    outer loop
      vertex  0.000000e+00  1.405000e+01 -1.005000e+01
      vertex  2.950460e+01  1.405000e+01  9.444571e-02
      vertex  3.049385e+01  1.405000e+01 -1.211147e-02
    endloop
  endfacet
  facet normal  0.000000e+00  1.000000e+00  0.000000e+00
    outer loop
      vertex  1.079081e+01  1.405000e+01  1.632640e+00
      vertex  1.206250e+01  1.405000e+01  3.405000e+01
      vertex  1.284856e+01  1.405000e+01  3.060605e+01
    endloop
  endfacet
  facet normal  0.000000e+00  1.000000e+00  0.000000e+00
    outer loop
      vertex  1.079081e+01  1.405000e+01  1.632640e+00
      vertex  1.284856e+01  1.405000e+01  3.060605e+01
      vertex  1.505105e+01  1.405000e+01  2.784421e+01
    endloop
  endfacet
  facet normal  0.000000e+00  1.000000e+00  0.000000e+00
    outer loop
      vertex  1.079081e+01  1.405000e+01  1.632640e+00
      vertex  1.505105e+01  1.405000e+01  2.784421e+01
      vertex  1.823374e+01  1.405000e+01  2.631151e+01
    endloop
  endfacet
  facet normal  -0.000000e+00  1.000000e+00  0.000000e+00
    outer loop
      vertex  1.079081e+01  1.405000e+01  1.632640e+00
      vertex  1.823374e+01  1.405000e+01  2.631151e+01
      vertex  2.176626e+01  1.405000e+01  2.631151e+01
    endloop
  endfacet
  facet normal  -0.000000e+00  9.999999e-01  0.000000e+00
    outer loop
      vertex  1.079081e+01  1.405000e+01  1.632640e+00
      vertex  2.176626e+01  1.405000e+01  2.631151e+01
      vertex  2.494895e+01  1.405000e+01  2.784421e+01
    endloop
  endfacet
  facet normal  -0.000000e+00  1.000000e+00  0.000000e+00
    outer loop
      vertex  1.079081e+01  1.405000e+01  1.632640e+00
      vertex  2.494895e+01  1.405000e+01  2.784421e+01
      vertex  2.715144e+01  1.405000e+01  3.060605e+01
    endloop
  endfacet
  facet normal  0.000000e+00  1.000000e+00  0.000000e+00
    outer loop
      vertex  1.079081e+01  1.405000e+01  1.632640e+00
      vertex  2.715144e+01  1.405000e+01  3.060605e+01
      vertex  2.898699e+01  1.405000e+01  1.858556e+00
    endloop
  endfacet
  facet normal  0.000000e+00  1.000000e+00  0.000000e+00
    outer loop
      vertex  1.079081e+01  1.405000e+01  1.632640e+00
      vertex  2.898699e+01  1.405000e+01  1.858556e+00
      vertex  2.888044e+01  1.405000e+01  8.693017e-01
    endloop
  endfacet
  facet normal  0.000000e+00  1.000000e+00  0.000000e+00
    outer loop
      vertex  1.079081e+01  1.405000e+01  1.632640e+00
      vertex  2.888044e+01  1.405000e+01  8.693017e-01
      vertex  1.068425e+01  1.405000e+01  6.433853e-01
    endloop
  endfacet
  facet normal  0.000000e+00  1.000000e+00  0.000000e+00
    outer loop
      vertex  2.793750e+01  1.405000e+01  3.405000e+01
      vertex  3.137526e+01  1.405000e+01  1.601304e+00
      vertex  3.075110e+01  1.405000e+01  2.376160e+00
    endloop
  endfacet
  facet normal  0.000000e+00  1.000000e+00  0.000000e+00
    outer loop
      vertex  2.793750e+01  1.405000e+01  3.405000e+01
      vertex  3.075110e+01  1.405000e+01  2.376160e+00
      vertex  2.976185e+01  1.405000e+01  2.482718e+00
    endloop
  endfacet
  facet normal  0.000000e+00  9.999999e-01  0.000000e+00
    outer loop
      vertex  2.793750e+01  1.405000e+01  3.405000e+01
      vertex  2.976185e+01  1.405000e+01  2.482718e+00
      vertex  2.898699e+01  1.405000e+01  1.858556e+00
    endloop
  endfacet
  facet normal  0.000000e+00  1.000000e+00  0.000000e+00
    outer loop
      vertex  2.793750e+01  1.405000e+01  3.405000e+01
      vertex  2.898699e+01  1.405000e+01  1.858556e+00
      vertex  2.715144e+01  1.405000e+01  3.060605e+01
    endloop
  endfacet
  facet normal  0.000000e+00  1.000000e+00  -0.000000e+00
    outer loop
      vertex  4.000000e+01  1.405000e+01  5.405000e+01
      vertex  2.793750e+01  1.405000e+01  3.405000e+01
      vertex  2.715144e+01  1.405000e+01  3.749395e+01
    endloop
  endfacet
  facet normal  0.000000e+00  1.000000e+00  -0.000000e+00
    outer loop
      vertex  4.000000e+01  1.405000e+01  5.405000e+01
      vertex  2.715144e+01  1.405000e+01  3.749395e+01
      vertex  2.494895e+01  1.405000e+01  4.025579e+01
    endloop
  endfacet
  facet normal  0.000000e+00  1.000000e+00  -0.000000e+00
    outer loop
      vertex  4.000000e+01  1.405000e+01  5.405000e+01
      vertex  2.494895e+01  1.405000e+01  4.025579e+01
      vertex  2.176626e+01  1.405000e+01  4.178849e+01
    endloop
  endfacet
  facet normal -4.338839e-01  -0.000000e+00 -9.009688e-01
    outer loop
      vertex  2.176626e+01 -1.405000e+01  4.178849e+01
      vertex  2.494895e+01  1.405000e+01  4.025579e+01
      vertex  2.494895e+01 -1.405000e+01  4.025579e+01
    endloop
  endfacet
  facet normal -7.818313e-01  0.000000e+00 -6.234900e-01
    outer loop
      vertex  2.494895e+01 -1.405000e+01  4.025579e+01
      vertex  2.494895e+01  1.405000e+01  4.025579e+01
      vertex  2.715144e+01  1.405000e+01  3.749395e+01
    endloop
  endfacet
  facet normal -7.818313e-01  -0.000000e+00 -6.234900e-01
    outer loop
      vertex  2.494895e+01 -1.405000e+01  4.025579e+01
      vertex  2.715144e+01  1.405000e+01  3.749395e+01
      vertex  2.715144e+01 -1.405000e+01  3.749395e+01
    endloop
  endfacet
  facet normal -9.749279e-01  0.000000e+00 -2.225210e-01
    outer loop
      vertex  2.715144e+01 -1.405000e+01  3.749395e+01
      vertex  2.715144e+01  1.405000e+01  3.749395e+01
      vertex  2.793750e+01  1.405000e+01  3.405000e+01
    endloop
  endfacet
  facet normal -9.749279e-01  -0.000000e+00 -2.225210e-01
    outer loop
      vertex  2.715144e+01 -1.405000e+01  3.749395e+01
      vertex  2.793750e+01  1.405000e+01  3.405000e+01
      vertex  2.793750e+01 -1.405000e+01  3.405000e+01
    endloop
  endfacet
  facet normal -4.338839e-01  0.000000e+00 -9.009688e-01
    outer loop
      vertex  2.494895e+01  1.405000e+01  4.025579e+01
      vertex  2.176626e+01 -1.405000e+01  4.178849e+01
      vertex  2.176626e+01  1.405000e+01  4.178849e+01
    endloop
  endfacet
  facet normal  0.000000e+00  -0.000000e+00 -1.000000e+00
    outer loop
      vertex  2.176626e+01  1.405000e+01  4.178849e+01
      vertex  2.176626e+01 -1.405000e+01  4.178849e+01
      vertex  1.823374e+01 -1.405000e+01  4.178849e+01
    endloop
  endfacet
  facet normal  0.000000e+00  0.000000e+00 -1.000000e+00
    outer loop
      vertex  2.176626e+01  1.405000e+01  4.178849e+01
      vertex  1.823374e+01 -1.405000e+01  4.178849e+01
      vertex  1.823374e+01  1.405000e+01  4.178849e+01
    endloop
  endfacet
  facet normal  4.338838e-01  0.000000e+00 -9.009688e-01
    outer loop
      vertex  1.823374e+01  1.405000e+01  4.178849e+01
      vertex  1.823374e+01 -1.405000e+01  4.178849e+01
      vertex  1.505105e+01 -1.405000e+01  4.025579e+01
    endloop
  endfacet
  facet normal  4.338838e-01  0.000000e+00 -9.009688e-01
    outer loop
      vertex  1.823374e+01  1.405000e+01  4.178849e+01
      vertex  1.505105e+01 -1.405000e+01  4.025579e+01
      vertex  1.505105e+01  1.405000e+01  4.025579e+01
    endloop
  endfacet
  facet normal  7.818313e-01  0.000000e+00 -6.234900e-01
    outer loop
      vertex  1.505105e+01  1.405000e+01  4.025579e+01
      vertex  1.505105e+01 -1.405000e+01  4.025579e+01
      vertex  1.284856e+01 -1.405000e+01  3.749395e+01
    endloop
  endfacet
  facet normal  7.818313e-01  0.000000e+00 -6.234900e-01
    outer loop
      vertex  1.505105e+01  1.405000e+01  4.025579e+01
      vertex  1.284856e+01 -1.405000e+01  3.749395e+01
      vertex  1.284856e+01  1.405000e+01  3.749395e+01
    endloop
  endfacet
  facet normal  9.749280e-01  0.000000e+00 -2.225207e-01
    outer loop
      vertex  1.284856e+01  1.405000e+01  3.749395e+01
      vertex  1.284856e+01 -1.405000e+01  3.749395e+01
      vertex  1.206250e+01 -1.405000e+01  3.405000e+01
    endloop
  endfacet
  facet normal  9.749280e-01  0.000000e+00 -2.225207e-01
    outer loop
      vertex  1.284856e+01  1.405000e+01  3.749395e+01
      vertex  1.206250e+01 -1.405000e+01  3.405000e+01
      vertex  1.206250e+01  1.405000e+01  3.405000e+01
    endloop
  endfacet
  facet normal  4.338838e-01  0.000000e+00  9.009688e-01
    outer loop
      vertex  1.823374e+01 -1.405000e+01  2.631151e+01
      vertex  1.505105e+01  1.405000e+01  2.784421e+01
      vertex  1.505105e+01 -1.405000e+01  2.784421e+01
    endloop
  endfacet
  facet normal  7.818315e-01  -0.000000e+00  6.234897e-01
    outer loop
      vertex  1.505105e+01 -1.405000e+01  2.784421e+01
      vertex  1.505105e+01  1.405000e+01  2.784421e+01
      vertex  1.284856e+01  1.405000e+01  3.060605e+01
    endloop
  endfacet
  facet normal  7.818315e-01  0.000000e+00  6.234897e-01
    outer loop
      vertex  1.505105e+01 -1.405000e+01  2.784421e+01
      vertex  1.284856e+01  1.405000e+01  3.060605e+01
      vertex  1.284856e+01 -1.405000e+01  3.060605e+01
    endloop
  endfacet
  facet normal  9.749279e-01  -0.000000e+00  2.225210e-01
    outer loop
      vertex  1.284856e+01 -1.405000e+01  3.060605e+01
      vertex  1.284856e+01  1.405000e+01  3.060605e+01
      vertex  1.206250e+01  1.405000e+01  3.405000e+01
    endloop
  endfacet
  facet normal  9.749279e-01  0.000000e+00  2.225210e-01
    outer loop
      vertex  1.284856e+01 -1.405000e+01  3.060605e+01
      vertex  1.206250e+01  1.405000e+01  3.405000e+01
      vertex  1.206250e+01 -1.405000e+01  3.405000e+01
    endloop
  endfacet
  facet normal  4.338838e-01  -0.000000e+00  9.009688e-01
    outer loop
      vertex  1.505105e+01  1.405000e+01  2.784421e+01
      vertex  1.823374e+01 -1.405000e+01  2.631151e+01
      vertex  1.823374e+01  1.405000e+01  2.631151e+01
    endloop
  endfacet
  facet normal  0.000000e+00  0.000000e+00  1.000000e+00
    outer loop
      vertex  1.823374e+01  1.405000e+01  2.631151e+01
      vertex  1.823374e+01 -1.405000e+01  2.631151e+01
      vertex  2.176626e+01 -1.405000e+01  2.631151e+01
    endloop
  endfacet
  facet normal  0.000000e+00  -0.000000e+00  1.000000e+00
    outer loop
      vertex  1.823374e+01  1.405000e+01  2.631151e+01
      vertex  2.176626e+01 -1.405000e+01  2.631151e+01
      vertex  2.176626e+01  1.405000e+01  2.631151e+01
    endloop
  endfacet
  facet normal -4.338839e-01  0.000000e+00  9.009688e-01
    outer loop
      vertex  2.176626e+01  1.405000e+01  2.631151e+01
      vertex  2.176626e+01 -1.405000e+01  2.631151e+01
      vertex  2.494895e+01 -1.405000e+01  2.784421e+01
    endloop
  endfacet
  facet normal -4.338839e-01  0.000000e+00  9.009688e-01
    outer loop
      vertex  2.176626e+01  1.405000e+01  2.631151e+01
      vertex  2.494895e+01 -1.405000e+01  2.784421e+01
      vertex  2.494895e+01  1.405000e+01  2.784421e+01
    endloop
  endfacet
  facet normal -7.818315e-01  0.000000e+00  6.234897e-01
    outer loop
      vertex  2.494895e+01  1.405000e+01  2.784421e+01
      vertex  2.494895e+01 -1.405000e+01  2.784421e+01
      vertex  2.715144e+01 -1.405000e+01  3.060605e+01
    endloop
  endfacet
  facet normal -7.818315e-01  0.000000e+00  6.234897e-01
    outer loop
      vertex  2.494895e+01  1.405000e+01  2.784421e+01
      vertex  2.715144e+01 -1.405000e+01  3.060605e+01
      vertex  2.715144e+01  1.405000e+01  3.060605e+01
    endloop
  endfacet
  facet normal -9.749279e-01  0.000000e+00  2.225212e-01
    outer loop
      vertex  2.715144e+01  1.405000e+01  3.060605e+01
      vertex  2.715144e+01 -1.405000e+01  3.060605e+01
      vertex  2.793750e+01 -1.405000e+01  3.405000e+01
    endloop
  endfacet
  facet normal -9.749279e-01  0.000000e+00  2.225212e-01
    outer loop
      vertex  2.715144e+01  1.405000e+01  3.060605e+01
      vertex  2.793750e+01 -1.405000e+01  3.405000e+01
      vertex  2.793750e+01  1.405000e+01  3.405000e+01
    endloop
  endfacet
  facet normal  0.000000e+00 -1.000000e+00  0.000000e+00
    outer loop
      vertex  3.075110e+01  1.005000e+01  2.376160e+00
      vertex  3.137526e+01  1.005000e+01  1.601304e+00
      vertex  4.000000e+01  1.005000e+01  1.005000e+01
    endloop
  endfacet
  facet normal  0.000000e+00 -1.000000e+00  0.000000e+00
    outer loop
      vertex  0.000000e+00  1.005000e+01  1.005000e+01
      vertex  0.000000e+00  1.005000e+01 -1.005000e+01
      vertex  8.295979e+00  1.005000e+01  9.006371e-01
    endloop
  endfacet
  facet normal  0.000000e+00 -1.000000e+00  0.000000e+00
    outer loop
      vertex  0.000000e+00  1.005000e+01  1.005000e+01
      vertex  8.295979e+00  1.005000e+01  9.006371e-01
      vertex  8.402536e+00  1.005000e+01  1.889892e+00
    endloop
  endfacet
  facet normal  0.000000e+00 -1.000000e+00  0.000000e+00
    outer loop
      vertex  0.000000e+00  1.005000e+01  1.005000e+01
      vertex  8.402536e+00  1.005000e+01  1.889892e+00
      vertex  9.177393e+00  1.005000e+01  2.514053e+00
    endloop
  endfacet
  facet normal  0.000000e+00 -1.000000e+00  0.000000e+00
    outer loop
      vertex  0.000000e+00  1.005000e+01  1.005000e+01
      vertex  9.177393e+00  1.005000e+01  2.514053e+00
      vertex  1.016665e+01  1.005000e+01  2.407496e+00
    endloop
  endfacet
  facet normal  0.000000e+00 -1.000000e+00  0.000000e+00
    outer loop
      vertex  0.000000e+00  1.005000e+01  1.005000e+01
      vertex  1.016665e+01  1.005000e+01  2.407496e+00
      vertex  2.898699e+01  1.005000e+01  1.858556e+00
    endloop
  endfacet
  facet normal  0.000000e+00 -1.000000e+00  0.000000e+00
    outer loop
      vertex  0.000000e+00  1.005000e+01  1.005000e+01
      vertex  2.898699e+01  1.005000e+01  1.858556e+00
      vertex  2.976185e+01  1.005000e+01  2.482718e+00
    endloop
  endfacet
  facet normal  0.000000e+00 -1.000000e+00  0.000000e+00
    outer loop
      vertex  0.000000e+00  1.005000e+01  1.005000e+01
      vertex  2.976185e+01  1.005000e+01  2.482718e+00
      vertex  3.075110e+01  1.005000e+01  2.376160e+00
    endloop
  endfacet
  facet normal  0.000000e+00 -1.000000e+00  0.000000e+00
    outer loop
      vertex  0.000000e+00  1.005000e+01  1.005000e+01
      vertex  3.075110e+01  1.005000e+01  2.376160e+00
      vertex  4.000000e+01  1.005000e+01  1.005000e+01
    endloop
  endfacet
  facet normal  0.000000e+00 -9.999999e-01  -0.000000e+00
    outer loop
      vertex  4.000000e+01  1.005000e+01 -1.005000e+01
      vertex  4.000000e+01  1.005000e+01  1.005000e+01
      vertex  3.137526e+01  1.005000e+01  1.601304e+00
    endloop
  endfacet
  facet normal  0.000000e+00 -1.000000e+00  -0.000000e+00
    outer loop
      vertex  4.000000e+01  1.005000e+01 -1.005000e+01
      vertex  3.137526e+01  1.005000e+01  1.601304e+00
      vertex  3.126871e+01  1.005000e+01  6.120498e-01
    endloop
  endfacet
  facet normal  0.000000e+00 -1.000000e+00  -0.000000e+00
    outer loop
      vertex  4.000000e+01  1.005000e+01 -1.005000e+01
      vertex  3.126871e+01  1.005000e+01  6.120498e-01
      vertex  3.049385e+01  1.005000e+01 -1.211147e-02
    endloop
  endfacet
  facet normal  0.000000e+00 -1.000000e+00  -0.000000e+00
    outer loop
      vertex  4.000000e+01  1.005000e+01 -1.005000e+01
      vertex  3.049385e+01  1.005000e+01 -1.211147e-02
      vertex  0.000000e+00  1.005000e+01 -1.005000e+01
    endloop
  endfacet
  facet normal  -0.000000e+00 -9.999999e-01  0.000000e+00
    outer loop
      vertex  0.000000e+00  1.005000e+01 -1.005000e+01
      vertex  3.049385e+01  1.005000e+01 -1.211147e-02
      vertex  2.950460e+01  1.005000e+01  9.444571e-02
    endloop
  endfacet
  facet normal  -0.000000e+00 -1.000000e+00  0.000000e+00
    outer loop
      vertex  0.000000e+00  1.005000e+01 -1.005000e+01
      vertex  2.950460e+01  1.005000e+01  9.444571e-02
      vertex  2.888044e+01  1.005000e+01  8.693017e-01
    endloop
  endfacet
  facet normal  0.000000e+00 -1.000000e+00  0.000000e+00
    outer loop
      vertex  0.000000e+00  1.005000e+01 -1.005000e+01
      vertex  2.888044e+01  1.005000e+01  8.693017e-01
      vertex  1.068425e+01  1.005000e+01  6.433853e-01
    endloop
  endfacet
  facet normal  0.000000e+00 -1.000000e+00  0.000000e+00
    outer loop
      vertex  0.000000e+00  1.005000e+01 -1.005000e+01
      vertex  1.068425e+01  1.005000e+01  6.433853e-01
      vertex  9.909395e+00  1.005000e+01  1.922400e-02
    endloop
  endfacet
  facet normal  -0.000000e+00 -1.000000e+00  0.000000e+00
    outer loop
      vertex  0.000000e+00  1.005000e+01 -1.005000e+01
      vertex  9.909395e+00  1.005000e+01  1.922400e-02
      vertex  8.920141e+00  1.005000e+01  1.257812e-01
    endloop
  endfacet
  facet normal  -0.000000e+00 -1.000000e+00  0.000000e+00
    outer loop
      vertex  0.000000e+00  1.005000e+01 -1.005000e+01
      vertex  8.920141e+00  1.005000e+01  1.257812e-01
      vertex  8.295979e+00  1.005000e+01  9.006371e-01
    endloop
  endfacet
  facet normal  -0.000000e+00 -1.000000e+00  0.000000e+00
    outer loop
      vertex  1.068425e+01  1.005000e+01  6.433853e-01
      vertex  2.888044e+01  1.005000e+01  8.693017e-01
      vertex  1.079081e+01  1.005000e+01  1.632640e+00
    endloop
  endfacet
  facet normal  0.000000e+00 -1.000000e+00  0.000000e+00
    outer loop
      vertex  1.079081e+01  1.005000e+01  1.632640e+00
      vertex  2.888044e+01  1.005000e+01  8.693017e-01
      vertex  2.898699e+01  1.005000e+01  1.858556e+00
    endloop
  endfacet
  facet normal  -0.000000e+00 -1.000000e+00  0.000000e+00
    outer loop
      vertex  1.079081e+01  1.005000e+01  1.632640e+00
      vertex  2.898699e+01  1.005000e+01  1.858556e+00
      vertex  1.016665e+01  1.005000e+01  2.407496e+00
    endloop
  endfacet
  facet normal  -0.000000e+00  1.000000e+00  0.000000e+00
    outer loop
      vertex  3.137526e+01 -1.005000e+01  1.601304e+00
      vertex  3.075110e+01 -1.005000e+01  2.376160e+00
      vertex  4.000000e+01 -1.005000e+01  1.005000e+01
    endloop
  endfacet
  facet normal  -0.000000e+00  1.000000e+00  0.000000e+00
    outer loop
      vertex  3.075110e+01 -1.005000e+01  2.376160e+00
      vertex  0.000000e+00 -1.005000e+01  1.005000e+01
      vertex  4.000000e+01 -1.005000e+01  1.005000e+01
    endloop
  endfacet
  facet normal  0.000000e+00  1.000000e+00  0.000000e+00
    outer loop
      vertex  4.000000e+01 -1.005000e+01 -1.005000e+01
      vertex  0.000000e+00 -1.005000e+01 -1.005000e+01
      vertex  3.049385e+01 -1.005000e+01 -1.211147e-02
    endloop
  endfacet
  facet normal  -0.000000e+00  1.000000e+00  0.000000e+00
    outer loop
      vertex  4.000000e+01 -1.005000e+01 -1.005000e+01
      vertex  3.049385e+01 -1.005000e+01 -1.211147e-02
      vertex  3.126871e+01 -1.005000e+01  6.120498e-01
    endloop
  endfacet
  facet normal  -0.000000e+00  1.000000e+00  0.000000e+00
    outer loop
      vertex  4.000000e+01 -1.005000e+01 -1.005000e+01
      vertex  3.126871e+01 -1.005000e+01  6.120498e-01
      vertex  3.137526e+01 -1.005000e+01  1.601304e+00
    endloop
  endfacet
  facet normal  -0.000000e+00  9.999999e-01  0.000000e+00
    outer loop
      vertex  4.000000e+01 -1.005000e+01 -1.005000e+01
      vertex  3.137526e+01 -1.005000e+01  1.601304e+00
      vertex  4.000000e+01 -1.005000e+01  1.005000e+01
    endloop
  endfacet
  facet normal  0.000000e+00  1.000000e+00  0.000000e+00
    outer loop
      vertex  0.000000e+00 -1.005000e+01  1.005000e+01
      vertex  3.075110e+01 -1.005000e+01  2.376160e+00
      vertex  2.976185e+01 -1.005000e+01  2.482718e+00
    endloop
  endfacet
  facet normal  0.000000e+00  1.000000e+00  0.000000e+00
    outer loop
      vertex  0.000000e+00 -1.005000e+01  1.005000e+01
      vertex  2.976185e+01 -1.005000e+01  2.482718e+00
      vertex  2.898699e+01 -1.005000e+01  1.858556e+00
    endloop
  endfacet
  facet normal  0.000000e+00  1.000000e+00  0.000000e+00
    outer loop
      vertex  0.000000e+00 -1.005000e+01  1.005000e+01
      vertex  2.898699e+01 -1.005000e+01  1.858556e+00
      vertex  1.016665e+01 -1.005000e+01  2.407496e+00
    endloop
  endfacet
  facet normal  0.000000e+00  1.000000e+00  0.000000e+00
    outer loop
      vertex  0.000000e+00 -1.005000e+01  1.005000e+01
      vertex  1.016665e+01 -1.005000e+01  2.407496e+00
      vertex  9.177393e+00 -1.005000e+01  2.514053e+00
    endloop
  endfacet
  facet normal  0.000000e+00  1.000000e+00  0.000000e+00
    outer loop
      vertex  0.000000e+00 -1.005000e+01  1.005000e+01
      vertex  9.177393e+00 -1.005000e+01  2.514053e+00
      vertex  8.402536e+00 -1.005000e+01  1.889892e+00
    endloop
  endfacet
  facet normal  0.000000e+00  1.000000e+00  0.000000e+00
    outer loop
      vertex  0.000000e+00 -1.005000e+01  1.005000e+01
      vertex  8.402536e+00 -1.005000e+01  1.889892e+00
      vertex  8.295979e+00 -1.005000e+01  9.006371e-01
    endloop
  endfacet
  facet normal  0.000000e+00  1.000000e+00  0.000000e+00
    outer loop
      vertex  0.000000e+00 -1.005000e+01  1.005000e+01
      vertex  8.295979e+00 -1.005000e+01  9.006371e-01
      vertex  0.000000e+00 -1.005000e+01 -1.005000e+01
    endloop
  endfacet
  facet normal  0.000000e+00  1.000000e+00  0.000000e+00
    outer loop
      vertex  0.000000e+00 -1.005000e+01 -1.005000e+01
      vertex  8.295979e+00 -1.005000e+01  9.006371e-01
      vertex  8.920141e+00 -1.005000e+01  1.257812e-01
    endloop
  endfacet
  facet normal  0.000000e+00  1.000000e+00  0.000000e+00
    outer loop
      vertex  0.000000e+00 -1.005000e+01 -1.005000e+01
      vertex  8.920141e+00 -1.005000e+01  1.257812e-01
      vertex  9.909395e+00 -1.005000e+01  1.922400e-02
    endloop
  endfacet
  facet normal  -0.000000e+00  1.000000e+00  0.000000e+00
    outer loop
      vertex  0.000000e+00 -1.005000e+01 -1.005000e+01
      vertex  9.909395e+00 -1.005000e+01  1.922400e-02
      vertex  1.068425e+01 -1.005000e+01  6.433853e-01
    endloop
  endfacet
  facet normal  -0.000000e+00  1.000000e+00  0.000000e+00
    outer loop
      vertex  0.000000e+00 -1.005000e+01 -1.005000e+01
      vertex  1.068425e+01 -1.005000e+01  6.433853e-01
      vertex  2.888044e+01 -1.005000e+01  8.693017e-01
    endloop
  endfacet
  facet normal  0.000000e+00  1.000000e+00  0.000000e+00
    outer loop
      vertex  0.000000e+00 -1.005000e+01 -1.005000e+01
      vertex  2.888044e+01 -1.005000e+01  8.693017e-01
      vertex  2.950460e+01 -1.005000e+01  9.444571e-02
    endloop
  endfacet
  facet normal  0.000000e+00  9.999999e-01  0.000000e+00
    outer loop
      vertex  0.000000e+00 -1.005000e+01 -1.005000e+01
      vertex  2.950460e+01 -1.005000e+01  9.444571e-02
      vertex  3.049385e+01 -1.005000e+01 -1.211147e-02
    endloop
  endfacet
  facet normal  0.000000e+00  1.000000e+00  0.000000e+00
    outer loop
      vertex  1.016665e+01 -1.005000e+01  2.407496e+00
      vertex  2.898699e+01 -1.005000e+01  1.858556e+00
      vertex  1.079081e+01 -1.005000e+01  1.632640e+00
    endloop
  endfacet
  facet normal  -0.000000e+00  1.000000e+00  0.000000e+00
    outer loop
      vertex  1.079081e+01 -1.005000e+01  1.632640e+00
      vertex  2.898699e+01 -1.005000e+01  1.858556e+00
      vertex  2.888044e+01 -1.005000e+01  8.693017e-01
    endloop
  endfacet
  facet normal  0.000000e+00  1.000000e+00  0.000000e+00
    outer loop
      vertex  1.079081e+01 -1.005000e+01  1.632640e+00
      vertex  2.888044e+01 -1.005000e+01  8.693017e-01
      vertex  1.068425e+01 -1.005000e+01  6.433853e-01
    endloop
  endfacet
  facet normal  7.787676e-01  0.000000e+00  6.273126e-01
    outer loop
      vertex  8.920141e+00 -1.405000e+01  1.257812e-01
      vertex  8.295979e+00 -1.005000e+01  9.006371e-01
      vertex  8.295979e+00 -1.405000e+01  9.006371e-01
    endloop
  endfacet
  facet normal  9.942489e-01  0.000000e+00 -1.070948e-01
    outer loop
      vertex  8.295979e+00 -1.405000e+01  9.006371e-01
      vertex  8.295979e+00 -1.005000e+01  9.006371e-01
      vertex  8.402536e+00 -1.005000e+01  1.889892e+00
    endloop
  endfacet
  facet normal  9.942489e-01  0.000000e+00 -1.070948e-01
    outer loop
      vertex  8.295979e+00 -1.405000e+01  9.006371e-01
      vertex  8.402536e+00 -1.005000e+01  1.889892e+00
      vertex  8.402536e+00 -1.405000e+01  1.889892e+00
    endloop
  endfacet
  facet normal  7.787676e-01  -0.000000e+00  6.273126e-01
    outer loop
      vertex  8.295979e+00 -1.005000e+01  9.006371e-01
      vertex  8.920141e+00 -1.405000e+01  1.257812e-01
      vertex  8.920141e+00 -1.005000e+01  1.257812e-01
    endloop
  endfacet
  facet normal  1.070952e-01  0.000000e+00  9.942487e-01
    outer loop
      vertex  8.920141e+00 -1.005000e+01  1.257812e-01
      vertex  8.920141e+00 -1.405000e+01  1.257812e-01
      vertex  9.909395e+00 -1.405000e+01  1.922400e-02
    endloop
  endfacet
  facet normal  1.070952e-01  -0.000000e+00  9.942487e-01
    outer loop
      vertex  8.920141e+00 -1.005000e+01  1.257812e-01
      vertex  9.909395e+00 -1.405000e+01  1.922400e-02
      vertex  9.909395e+00 -1.005000e+01  1.922400e-02
    endloop
  endfacet
  facet normal -6.273120e-01  0.000000e+00  7.787680e-01
    outer loop
      vertex  9.909395e+00 -1.005000e+01  1.922400e-02
      vertex  9.909395e+00 -1.405000e+01  1.922400e-02
      vertex  1.068425e+01 -1.405000e+01  6.433853e-01
    endloop
  endfacet
  facet normal -6.273120e-01  0.000000e+00  7.787680e-01
    outer loop
      vertex  9.909395e+00 -1.005000e+01  1.922400e-02
      vertex  1.068425e+01 -1.405000e+01  6.433853e-01
      vertex  1.068425e+01 -1.005000e+01  6.433853e-01
    endloop
  endfacet
  facet normal  7.787676e-01  0.000000e+00  6.273126e-01
    outer loop
      vertex  8.920141e+00  1.005000e+01  1.257812e-01
      vertex  8.295979e+00  1.405000e+01  9.006371e-01
      vertex  8.295979e+00  1.005000e+01  9.006371e-01
    endloop
  endfacet
  facet normal  9.942489e-01  0.000000e+00 -1.070948e-01
    outer loop
      vertex  8.295979e+00  1.005000e+01  9.006371e-01
      vertex  8.295979e+00  1.405000e+01  9.006371e-01
      vertex  8.402536e+00  1.405000e+01  1.889892e+00
    endloop
  endfacet
  facet normal  9.942489e-01  0.000000e+00 -1.070948e-01
    outer loop
      vertex  8.295979e+00  1.005000e+01  9.006371e-01
      vertex  8.402536e+00  1.405000e+01  1.889892e+00
      vertex  8.402536e+00  1.005000e+01  1.889892e+00
    endloop
  endfacet
  facet normal  7.787676e-01  -0.000000e+00  6.273126e-01
    outer loop
      vertex  8.295979e+00  1.405000e+01  9.006371e-01
      vertex  8.920141e+00  1.005000e+01  1.257812e-01
      vertex  8.920141e+00  1.405000e+01  1.257812e-01
    endloop
  endfacet
  facet normal  1.070952e-01  0.000000e+00  9.942487e-01
    outer loop
      vertex  8.920141e+00  1.405000e+01  1.257812e-01
      vertex  8.920141e+00  1.005000e+01  1.257812e-01
      vertex  9.909395e+00  1.005000e+01  1.922400e-02
    endloop
  endfacet
  facet normal  1.070952e-01  -0.000000e+00  9.942487e-01
    outer loop
      vertex  8.920141e+00  1.405000e+01  1.257812e-01
      vertex  9.909395e+00  1.005000e+01  1.922400e-02
      vertex  9.909395e+00  1.405000e+01  1.922400e-02
    endloop
  endfacet
  facet normal -6.273120e-01  0.000000e+00  7.787680e-01
    outer loop
      vertex  9.909395e+00  1.405000e+01  1.922400e-02
      vertex  9.909395e+00  1.005000e+01  1.922400e-02
      vertex  1.068425e+01  1.005000e+01  6.433853e-01
    endloop
  endfacet
  facet normal -6.273120e-01  0.000000e+00  7.787680e-01
    outer loop
      vertex  9.909395e+00  1.405000e+01  1.922400e-02
      vertex  1.068425e+01  1.005000e+01  6.433853e-01
      vertex  1.068425e+01  1.405000e+01  6.433853e-01
    endloop
  endfacet
  facet normal -7.787675e-01  -0.000000e+00 -6.273127e-01
    outer loop
      vertex  1.016665e+01 -1.405000e+01  2.407496e+00
      vertex  1.079081e+01 -1.005000e+01  1.632640e+00
      vertex  1.079081e+01 -1.405000e+01  1.632640e+00
    endloop
  endfacet
  facet normal -9.942489e-01  0.000000e+00  1.070948e-01
    outer loop
      vertex  1.079081e+01 -1.405000e+01  1.632640e+00
      vertex  1.079081e+01 -1.005000e+01  1.632640e+00
      vertex  1.068425e+01 -1.005000e+01  6.433853e-01
    endloop
  endfacet
  facet normal -9.942489e-01  0.000000e+00  1.070948e-01
    outer loop
      vertex  1.079081e+01 -1.405000e+01  1.632640e+00
      vertex  1.068425e+01 -1.005000e+01  6.433853e-01
      vertex  1.068425e+01 -1.405000e+01  6.433853e-01
    endloop
  endfacet
  facet normal -7.787675e-01  0.000000e+00 -6.273127e-01
    outer loop
      vertex  1.079081e+01 -1.005000e+01  1.632640e+00
      vertex  1.016665e+01 -1.405000e+01  2.407496e+00
      vertex  1.016665e+01 -1.005000e+01  2.407496e+00
    endloop
  endfacet
  facet normal -1.070954e-01  -0.000000e+00 -9.942487e-01
    outer loop
      vertex  1.016665e+01 -1.005000e+01  2.407496e+00
      vertex  1.016665e+01 -1.405000e+01  2.407496e+00
      vertex  9.177393e+00 -1.405000e+01  2.514053e+00
    endloop
  endfacet
  facet normal -1.070954e-01  0.000000e+00 -9.942487e-01
    outer loop
      vertex  1.016665e+01 -1.005000e+01  2.407496e+00
      vertex  9.177393e+00 -1.405000e+01  2.514053e+00
      vertex  9.177393e+00 -1.005000e+01  2.514053e+00
    endloop
  endfacet
  facet normal  6.273121e-01  0.000000e+00 -7.787680e-01
    outer loop
      vertex  9.177393e+00 -1.005000e+01  2.514053e+00
      vertex  9.177393e+00 -1.405000e+01  2.514053e+00
      vertex  8.402536e+00 -1.405000e+01  1.889892e+00
    endloop
  endfacet
  facet normal  6.273121e-01  0.000000e+00 -7.787680e-01
    outer loop
      vertex  9.177393e+00 -1.005000e+01  2.514053e+00
      vertex  8.402536e+00 -1.405000e+01  1.889892e+00
      vertex  8.402536e+00 -1.005000e+01  1.889892e+00
    endloop
  endfacet
  facet normal -7.787675e-01  -0.000000e+00 -6.273127e-01
    outer loop
      vertex  1.016665e+01  1.005000e+01  2.407496e+00
      vertex  1.079081e+01  1.405000e+01  1.632640e+00
      vertex  1.079081e+01  1.005000e+01  1.632640e+00
    endloop
  endfacet
  facet normal -9.942489e-01  0.000000e+00  1.070948e-01
    outer loop
      vertex  1.079081e+01  1.005000e+01  1.632640e+00
      vertex  1.079081e+01  1.405000e+01  1.632640e+00
      vertex  1.068425e+01  1.405000e+01  6.433853e-01
    endloop
  endfacet
  facet normal -9.942489e-01  0.000000e+00  1.070948e-01
    outer loop
      vertex  1.079081e+01  1.005000e+01  1.632640e+00
      vertex  1.068425e+01  1.405000e+01  6.433853e-01
      vertex  1.068425e+01  1.005000e+01  6.433853e-01
    endloop
  endfacet
  facet normal -7.787675e-01  0.000000e+00 -6.273127e-01
    outer loop
      vertex  1.079081e+01  1.405000e+01  1.632640e+00
      vertex  1.016665e+01  1.005000e+01  2.407496e+00
      vertex  1.016665e+01  1.405000e+01  2.407496e+00
    endloop
  endfacet
  facet normal -1.070954e-01  -0.000000e+00 -9.942487e-01
    outer loop
      vertex  1.016665e+01  1.405000e+01  2.407496e+00
      vertex  1.016665e+01  1.005000e+01  2.407496e+00
      vertex  9.177393e+00  1.005000e+01  2.514053e+00
    endloop
  endfacet
  facet normal -1.070954e-01  0.000000e+00 -9.942487e-01
    outer loop
      vertex  1.016665e+01  1.405000e+01  2.407496e+00
      vertex  9.177393e+00  1.005000e+01  2.514053e+00
      vertex  9.177393e+00  1.405000e+01  2.514053e+00
    endloop
  endfacet
  facet normal  6.273121e-01  0.000000e+00 -7.787680e-01
    outer loop
      vertex  9.177393e+00  1.405000e+01  2.514053e+00
      vertex  9.177393e+00  1.005000e+01  2.514053e+00
      vertex  8.402536e+00  1.005000e+01  1.889892e+00
    endloop
  endfacet
  facet normal  6.273121e-01  0.000000e+00 -7.787680e-01
    outer loop
      vertex  9.177393e+00  1.405000e+01  2.514053e+00
      vertex  8.402536e+00  1.005000e+01  1.889892e+00
      vertex  8.402536e+00  1.405000e+01  1.889892e+00
    endloop
  endfacet
  facet normal  7.787680e-01  0.000000e+00  6.273120e-01
    outer loop
      vertex  2.950460e+01 -1.405000e+01  9.444571e-02
      vertex  2.888044e+01 -1.005000e+01  8.693017e-01
      vertex  2.888044e+01 -1.405000e+01  8.693017e-01
    endloop
  endfacet
  facet normal  9.942490e-01  0.000000e+00 -1.070939e-01
    outer loop
      vertex  2.888044e+01 -1.405000e+01  8.693017e-01
      vertex  2.888044e+01 -1.005000e+01  8.693017e-01
      vertex  2.898699e+01 -1.005000e+01  1.858556e+00
    endloop
  endfacet
  facet normal  9.942490e-01  0.000000e+00 -1.070939e-01
    outer loop
      vertex  2.888044e+01 -1.405000e+01  8.693017e-01
      vertex  2.898699e+01 -1.005000e+01  1.858556e+00
      vertex  2.898699e+01 -1.405000e+01  1.858556e+00
    endloop
  endfacet
  facet normal  7.787680e-01  -0.000000e+00  6.273120e-01
    outer loop
      vertex  2.888044e+01 -1.005000e+01  8.693017e-01
      vertex  2.950460e+01 -1.405000e+01  9.444571e-02
      vertex  2.950460e+01 -1.005000e+01  9.444571e-02
    endloop
  endfacet
  facet normal  1.070952e-01  0.000000e+00  9.942487e-01
    outer loop
      vertex  2.950460e+01 -1.005000e+01  9.444571e-02
      vertex  2.950460e+01 -1.405000e+01  9.444571e-02
      vertex  3.049385e+01 -1.405000e+01 -1.211147e-02
    endloop
  endfacet
  facet normal  1.070952e-01  -0.000000e+00  9.942487e-01
    outer loop
      vertex  2.950460e+01 -1.005000e+01  9.444571e-02
      vertex  3.049385e+01 -1.405000e+01 -1.211147e-02
      vertex  3.049385e+01 -1.005000e+01 -1.211147e-02
    endloop
  endfacet
  facet normal -6.273120e-01  0.000000e+00  7.787680e-01
    outer loop
      vertex  3.049385e+01 -1.005000e+01 -1.211147e-02
      vertex  3.049385e+01 -1.405000e+01 -1.211147e-02
      vertex  3.126871e+01 -1.405000e+01  6.120498e-01
    endloop
  endfacet
  facet normal -6.273120e-01  0.000000e+00  7.787680e-01
    outer loop
      vertex  3.049385e+01 -1.005000e+01 -1.211147e-02
      vertex  3.126871e+01 -1.405000e+01  6.120498e-01
      vertex  3.126871e+01 -1.005000e+01  6.120498e-01
    endloop
  endfacet
  facet normal  7.787680e-01  0.000000e+00  6.273120e-01
    outer loop
      vertex  2.950460e+01  1.005000e+01  9.444571e-02
      vertex  2.888044e+01  1.405000e+01  8.693017e-01
      vertex  2.888044e+01  1.005000e+01  8.693017e-01
    endloop
  endfacet
  facet normal  9.942490e-01  0.000000e+00 -1.070939e-01
    outer loop
      vertex  2.888044e+01  1.005000e+01  8.693017e-01
      vertex  2.888044e+01  1.405000e+01  8.693017e-01
      vertex  2.898699e+01  1.405000e+01  1.858556e+00
    endloop
  endfacet
  facet normal  9.942490e-01  0.000000e+00 -1.070939e-01
    outer loop
      vertex  2.888044e+01  1.005000e+01  8.693017e-01
      vertex  2.898699e+01  1.405000e+01  1.858556e+00
      vertex  2.898699e+01  1.005000e+01  1.858556e+00
    endloop
  endfacet
  facet normal  7.787680e-01  -0.000000e+00  6.273120e-01
    outer loop
      vertex  2.888044e+01  1.405000e+01  8.693017e-01
      vertex  2.950460e+01  1.005000e+01  9.444571e-02
      vertex  2.950460e+01  1.405000e+01  9.444571e-02
    endloop
  endfacet
  facet normal  1.070952e-01  0.000000e+00  9.942487e-01
    outer loop
      vertex  2.950460e+01  1.405000e+01  9.444571e-02
      vertex  2.950460e+01  1.005000e+01  9.444571e-02
      vertex  3.049385e+01  1.005000e+01 -1.211147e-02
    endloop
  endfacet
  facet normal  1.070952e-01  -0.000000e+00  9.942487e-01
    outer loop
      vertex  2.950460e+01  1.405000e+01  9.444571e-02
      vertex  3.049385e+01  1.005000e+01 -1.211147e-02
      vertex  3.049385e+01  1.405000e+01 -1.211147e-02
    endloop
  endfacet
  facet normal -6.273120e-01  0.000000e+00  7.787680e-01
    outer loop
      vertex  3.049385e+01  1.405000e+01 -1.211147e-02
      vertex  3.049385e+01  1.005000e+01 -1.211147e-02
      vertex  3.126871e+01  1.005000e+01  6.120498e-01
    endloop
  endfacet
  facet normal -6.273120e-01  0.000000e+00  7.787680e-01
    outer loop
      vertex  3.049385e+01  1.405000e+01 -1.211147e-02
      vertex  3.126871e+01  1.005000e+01  6.120498e-01
      vertex  3.126871e+01  1.405000e+01  6.120498e-01
    endloop
  endfacet
  facet normal -7.787680e-01  -0.000000e+00 -6.273120e-01
    outer loop
      vertex  3.075110e+01 -1.405000e+01  2.376160e+00
      vertex  3.137526e+01 -1.005000e+01  1.601304e+00
      vertex  3.137526e+01 -1.405000e+01  1.601304e+00
    endloop
  endfacet
  facet normal -9.942490e-01  0.000000e+00  1.070939e-01
    outer loop
      vertex  3.137526e+01 -1.405000e+01  1.601304e+00
      vertex  3.137526e+01 -1.005000e+01  1.601304e+00
      vertex  3.126871e+01 -1.005000e+01  6.120498e-01
    endloop
  endfacet
  facet normal -9.942490e-01  0.000000e+00  1.070939e-01
    outer loop
      vertex  3.137526e+01 -1.405000e+01  1.601304e+00
      vertex  3.126871e+01 -1.005000e+01  6.120498e-01
      vertex  3.126871e+01 -1.405000e+01  6.120498e-01
    endloop
  endfacet
  facet normal -7.787680e-01  0.000000e+00 -6.273120e-01
    outer loop
      vertex  3.137526e+01 -1.005000e+01  1.601304e+00
      vertex  3.075110e+01 -1.405000e+01  2.376160e+00
      vertex  3.075110e+01 -1.005000e+01  2.376160e+00
    endloop
  endfacet
  facet normal -1.070951e-01  -0.000000e+00 -9.942487e-01
    outer loop
      vertex  3.075110e+01 -1.005000e+01  2.376160e+00
      vertex  3.075110e+01 -1.405000e+01  2.376160e+00
      vertex  2.976185e+01 -1.405000e+01  2.482718e+00
    endloop
  endfacet
  facet normal -1.070951e-01  0.000000e+00 -9.942487e-01
    outer loop
      vertex  3.075110e+01 -1.005000e+01  2.376160e+00
      vertex  2.976185e+01 -1.405000e+01  2.482718e+00
      vertex  2.976185e+01 -1.005000e+01  2.482718e+00
    endloop
  endfacet
  facet normal  6.273120e-01  0.000000e+00 -7.787681e-01
    outer loop
      vertex  2.976185e+01 -1.005000e+01  2.482718e+00
      vertex  2.976185e+01 -1.405000e+01  2.482718e+00
      vertex  2.898699e+01 -1.405000e+01  1.858556e+00
    endloop
  endfacet
  facet normal  6.273120e-01  0.000000e+00 -7.787681e-01
    outer loop
      vertex  2.976185e+01 -1.005000e+01  2.482718e+00
      vertex  2.898699e+01 -1.405000e+01  1.858556e+00
      vertex  2.898699e+01 -1.005000e+01  1.858556e+00
    endloop
  endfacet
  facet normal -7.787680e-01  -0.000000e+00 -6.273120e-01
    outer loop
      vertex  3.075110e+01  1.005000e+01  2.376160e+00
      vertex  3.137526e+01  1.405000e+01  1.601304e+00
      vertex  3.137526e+01  1.005000e+01  1.601304e+00
    endloop
  endfacet
  facet normal -9.942490e-01  0.000000e+00  1.070939e-01
    outer loop
      vertex  3.137526e+01  1.005000e+01  1.601304e+00
      vertex  3.137526e+01  1.405000e+01  1.601304e+00
      vertex  3.126871e+01  1.405000e+01  6.120498e-01
    endloop
  endfacet
  facet normal -9.942490e-01  0.000000e+00  1.070939e-01
    outer loop
      vertex  3.137526e+01  1.005000e+01  1.601304e+00
      vertex  3.126871e+01  1.405000e+01  6.120498e-01
      vertex  3.126871e+01  1.005000e+01  6.120498e-01
    endloop
  endfacet
  facet normal -7.787680e-01  0.000000e+00 -6.273120e-01
    outer loop
      vertex  3.137526e+01  1.405000e+01  1.601304e+00
      vertex  3.075110e+01  1.005000e+01  2.376160e+00
      vertex  3.075110e+01  1.405000e+01  2.376160e+00
    endloop
  endfacet
  facet normal -1.070951e-01  -0.000000e+00 -9.942487e-01
    outer loop
      vertex  3.075110e+01  1.405000e+01  2.376160e+00
      vertex  3.075110e+01  1.005000e+01  2.376160e+00
      vertex  2.976185e+01  1.005000e+01  2.482718e+00
    endloop
  endfacet
  facet normal -1.070951e-01  0.000000e+00 -9.942487e-01
    outer loop
      vertex  3.075110e+01  1.405000e+01  2.376160e+00
      vertex  2.976185e+01  1.005000e+01  2.482718e+00
      vertex  2.976185e+01  1.405000e+01  2.482718e+00
    endloop
  endfacet
  facet normal  6.273120e-01  0.000000e+00 -7.787681e-01
    outer loop
      vertex  2.976185e+01  1.405000e+01  2.482718e+00
      vertex  2.976185e+01  1.005000e+01  2.482718e+00
      vertex  2.898699e+01  1.005000e+01  1.858556e+00
    endloop
  endfacet
  facet normal  6.273120e-01  0.000000e+00 -7.787681e-01
    outer loop
      vertex  2.976185e+01  1.405000e+01  2.482718e+00
      vertex  2.898699e+01  1.005000e+01  1.858556e+00
      vertex  2.898699e+01  1.405000e+01  1.858556e+00
    endloop
  endfacet
  facet normal  -0.000000e+00  0.000000e+00 -1.000000e+00
    outer loop
      vertex  0.000000e+00  1.005000e+01  1.005000e+01
      vertex  4.000000e+01  1.005000e+01  1.005000e+01
      vertex  0.000000e+00 -1.005000e+01  1.005000e+01
    endloop
  endfacet
  facet normal  0.000000e+00  0.000000e+00 -1.000000e+00
    outer loop
      vertex  0.000000e+00 -1.005000e+01  1.005000e+01
      vertex  4.000000e+01  1.005000e+01  1.005000e+01
      vertex  4.000000e+01 -1.005000e+01  1.005000e+01
    endloop
  endfacet
endsolid CATIA STL
