solid CATIA STL
  facet normal -9.999999e-001  0.000000e+000  0.000000e+000
    outer loop
      vertex  0.000000e+000  8.228993e+000  1.132624e+001
      vertex  0.000000e+000  1.137599e-014  9.525000e+000
      vertex  0.000000e+000  4.326238e+000  1.331479e+001
    endloop
  endfacet
  facet normal -9.999999e-001  -0.000000e+000  0.000000e+000
    outer loop
      vertex  0.000000e+000  4.326238e+000  1.331479e+001
      vertex  0.000000e+000  1.137599e-014  9.525000e+000
      vertex  0.000000e+000 -2.251400e-015  1.400000e+001
    endloop
  endfacet
  facet normal -1.000000e+000  0.000000e+000  0.000000e+000
    outer loop
      vertex  0.000000e+000  1.137599e-014  9.525000e+000
      vertex  0.000000e+000 -8.228993e+000  1.132624e+001
      vertex  0.000000e+000 -2.251400e-015  1.400000e+001
    endloop
  endfacet
  facet normal -1.000000e+000  0.000000e+000  0.000000e+000
    outer loop
      vertex  0.000000e+000 -2.251400e-015  1.400000e+001
      vertex  0.000000e+000 -8.228993e+000  1.132624e+001
      vertex  0.000000e+000 -4.326238e+000  1.331479e+001
    endloop
  endfacet
  facet normal -9.999999e-001  0.000000e+000  0.000000e+000
    outer loop
      vertex  0.000000e+000 -8.799953e+000  3.645060e+000
      vertex  0.000000e+000 -1.331479e+001  4.326238e+000
      vertex  0.000000e+000 -6.735192e+000  6.735192e+000
    endloop
  endfacet
  facet normal -1.000000e+000  -0.000000e+000  0.000000e+000
    outer loop
      vertex  0.000000e+000 -6.735192e+000  6.735192e+000
      vertex  0.000000e+000 -1.331479e+001  4.326238e+000
      vertex  0.000000e+000 -1.132624e+001  8.228993e+000
    endloop
  endfacet
  facet normal -1.000000e+000  0.000000e+000  0.000000e+000
    outer loop
      vertex  0.000000e+000 -6.735192e+000  6.735192e+000
      vertex  0.000000e+000 -1.132624e+001  8.228993e+000
      vertex  0.000000e+000 -3.645060e+000  8.799953e+000
    endloop
  endfacet
  facet normal -1.000000e+000  -0.000000e+000  0.000000e+000
    outer loop
      vertex  0.000000e+000 -3.645060e+000  8.799953e+000
      vertex  0.000000e+000 -1.132624e+001  8.228993e+000
      vertex  0.000000e+000 -8.228993e+000  1.132624e+001
    endloop
  endfacet
  facet normal -1.000000e+000  0.000000e+000  0.000000e+000
    outer loop
      vertex  0.000000e+000 -3.645060e+000  8.799953e+000
      vertex  0.000000e+000 -8.228993e+000  1.132624e+001
      vertex  0.000000e+000  1.137599e-014  9.525000e+000
    endloop
  endfacet
  facet normal -1.000000e+000  0.000000e+000  0.000000e+000
    outer loop
      vertex  0.000000e+000 -3.645060e+000 -8.799953e+000
      vertex  0.000000e+000 -1.132624e+001 -8.228993e+000
      vertex  0.000000e+000 -6.735192e+000 -6.735192e+000
    endloop
  endfacet
  facet normal -1.000000e+000  -0.000000e+000  0.000000e+000
    outer loop
      vertex  0.000000e+000 -6.735192e+000 -6.735192e+000
      vertex  0.000000e+000 -1.132624e+001 -8.228993e+000
      vertex  0.000000e+000 -1.331479e+001 -4.326238e+000
    endloop
  endfacet
  facet normal -9.999999e-001  0.000000e+000  0.000000e+000
    outer loop
      vertex  0.000000e+000 -6.735192e+000 -6.735192e+000
      vertex  0.000000e+000 -1.331479e+001 -4.326238e+000
      vertex  0.000000e+000 -8.799953e+000 -3.645060e+000
    endloop
  endfacet
  facet normal -1.000000e+000  -0.000000e+000  0.000000e+000
    outer loop
      vertex  0.000000e+000 -8.799953e+000 -3.645060e+000
      vertex  0.000000e+000 -1.331479e+001 -4.326238e+000
      vertex  0.000000e+000 -1.400000e+001 -4.502800e-015
    endloop
  endfacet
  facet normal -1.000000e+000  0.000000e+000  0.000000e+000
    outer loop
      vertex  0.000000e+000 -8.799953e+000 -3.645060e+000
      vertex  0.000000e+000 -1.400000e+001 -4.502800e-015
      vertex  0.000000e+000 -9.525000e+000  1.166438e-015
    endloop
  endfacet
  facet normal -9.999999e-001  -0.000000e+000  0.000000e+000
    outer loop
      vertex  0.000000e+000 -9.525000e+000  1.166438e-015
      vertex  0.000000e+000 -1.400000e+001 -4.502800e-015
      vertex  0.000000e+000 -1.331479e+001  4.326238e+000
    endloop
  endfacet
  facet normal -1.000000e+000  0.000000e+000  0.000000e+000
    outer loop
      vertex  0.000000e+000 -9.525000e+000  1.166438e-015
      vertex  0.000000e+000 -1.331479e+001  4.326238e+000
      vertex  0.000000e+000 -8.799953e+000  3.645060e+000
    endloop
  endfacet
  facet normal -1.000000e+000  0.000000e+000  0.000000e+000
    outer loop
      vertex  0.000000e+000 -3.645060e+000 -8.799953e+000
      vertex  0.000000e+000 -1.749656e-015 -9.525000e+000
      vertex  0.000000e+000 -1.132624e+001 -8.228993e+000
    endloop
  endfacet
  facet normal -9.999999e-001  0.000000e+000  0.000000e+000
    outer loop
      vertex  0.000000e+000 -1.132624e+001 -8.228993e+000
      vertex  0.000000e+000 -1.749656e-015 -9.525000e+000
      vertex  0.000000e+000 -8.228993e+000 -1.132624e+001
    endloop
  endfacet
  facet normal -1.000000e+000  0.000000e+000  0.000000e+000
    outer loop
      vertex  0.000000e+000 -1.749656e-015 -9.525000e+000
      vertex  0.000000e+000 -2.571673e-015 -1.400000e+001
      vertex  0.000000e+000 -8.228993e+000 -1.132624e+001
    endloop
  endfacet
  facet normal -1.000000e+000  0.000000e+000  0.000000e+000
    outer loop
      vertex  0.000000e+000 -8.228993e+000 -1.132624e+001
      vertex  0.000000e+000 -2.571673e-015 -1.400000e+001
      vertex  0.000000e+000 -4.326238e+000 -1.331479e+001
    endloop
  endfacet
  facet normal -9.999999e-001  0.000000e+000  0.000000e+000
    outer loop
      vertex  0.000000e+000  8.799953e+000  3.645060e+000
      vertex  0.000000e+000  6.735192e+000  6.735192e+000
      vertex  0.000000e+000  1.331479e+001  4.326238e+000
    endloop
  endfacet
  facet normal -1.000000e+000  0.000000e+000  0.000000e+000
    outer loop
      vertex  0.000000e+000  1.331479e+001  4.326238e+000
      vertex  0.000000e+000  6.735192e+000  6.735192e+000
      vertex  0.000000e+000  3.645060e+000  8.799953e+000
    endloop
  endfacet
  facet normal -1.000000e+000  0.000000e+000  0.000000e+000
    outer loop
      vertex  0.000000e+000  1.331479e+001  4.326238e+000
      vertex  0.000000e+000  3.645060e+000  8.799953e+000
      vertex  0.000000e+000  1.132624e+001  8.228993e+000
    endloop
  endfacet
  facet normal -1.000000e+000  0.000000e+000  0.000000e+000
    outer loop
      vertex  0.000000e+000  1.132624e+001  8.228993e+000
      vertex  0.000000e+000  3.645060e+000  8.799953e+000
      vertex  0.000000e+000  1.137599e-014  9.525000e+000
    endloop
  endfacet
  facet normal -9.999999e-001  0.000000e+000  0.000000e+000
    outer loop
      vertex  0.000000e+000  1.132624e+001  8.228993e+000
      vertex  0.000000e+000  1.137599e-014  9.525000e+000
      vertex  0.000000e+000  8.228993e+000  1.132624e+001
    endloop
  endfacet
  facet normal -1.000000e+000  0.000000e+000  -0.000000e+000
    outer loop
      vertex  0.000000e+000  3.645060e+000 -8.799953e+000
      vertex  0.000000e+000  6.735192e+000 -6.735192e+000
      vertex  0.000000e+000  1.132624e+001 -8.228993e+000
    endloop
  endfacet
  facet normal -1.000000e+000  0.000000e+000  0.000000e+000
    outer loop
      vertex  0.000000e+000  1.132624e+001 -8.228993e+000
      vertex  0.000000e+000  6.735192e+000 -6.735192e+000
      vertex  0.000000e+000  8.799953e+000 -3.645060e+000
    endloop
  endfacet
  facet normal -1.000000e+000  0.000000e+000  0.000000e+000
    outer loop
      vertex  0.000000e+000  1.132624e+001 -8.228993e+000
      vertex  0.000000e+000  8.799953e+000 -3.645060e+000
      vertex  0.000000e+000  1.331479e+001 -4.326238e+000
    endloop
  endfacet
  facet normal -1.000000e+000  0.000000e+000  0.000000e+000
    outer loop
      vertex  0.000000e+000  1.331479e+001 -4.326238e+000
      vertex  0.000000e+000  8.799953e+000 -3.645060e+000
      vertex  0.000000e+000  9.525000e+000 -2.332875e-015
    endloop
  endfacet
  facet normal -9.999999e-001  0.000000e+000  0.000000e+000
    outer loop
      vertex  0.000000e+000  1.331479e+001 -4.326238e+000
      vertex  0.000000e+000  9.525000e+000 -2.332875e-015
      vertex  0.000000e+000  1.400000e+001  0.000000e+000
    endloop
  endfacet
  facet normal -1.000000e+000  -0.000000e+000  0.000000e+000
    outer loop
      vertex  0.000000e+000  1.400000e+001  0.000000e+000
      vertex  0.000000e+000  9.525000e+000 -2.332875e-015
      vertex  0.000000e+000  8.799953e+000  3.645060e+000
    endloop
  endfacet
  facet normal -1.000000e+000  0.000000e+000  0.000000e+000
    outer loop
      vertex  0.000000e+000  1.400000e+001  0.000000e+000
      vertex  0.000000e+000  8.799953e+000  3.645060e+000
      vertex  0.000000e+000  1.331479e+001  4.326238e+000
    endloop
  endfacet
  facet normal -1.000000e+000  0.000000e+000  0.000000e+000
    outer loop
      vertex  0.000000e+000  1.132624e+001 -8.228993e+000
      vertex  0.000000e+000  8.228993e+000 -1.132624e+001
      vertex  0.000000e+000  3.645060e+000 -8.799953e+000
    endloop
  endfacet
  facet normal -1.000000e+000  0.000000e+000  -0.000000e+000
    outer loop
      vertex  0.000000e+000  3.645060e+000 -8.799953e+000
      vertex  0.000000e+000  8.228993e+000 -1.132624e+001
      vertex  0.000000e+000 -1.749656e-015 -9.525000e+000
    endloop
  endfacet
  facet normal -9.999999e-001  0.000000e+000  0.000000e+000
    outer loop
      vertex  0.000000e+000  8.228993e+000 -1.132624e+001
      vertex  0.000000e+000  4.326238e+000 -1.331479e+001
      vertex  0.000000e+000 -1.749656e-015 -9.525000e+000
    endloop
  endfacet
  facet normal -9.999999e-001  0.000000e+000  -0.000000e+000
    outer loop
      vertex  0.000000e+000 -1.749656e-015 -9.525000e+000
      vertex  0.000000e+000  4.326238e+000 -1.331479e+001
      vertex  0.000000e+000 -2.571673e-015 -1.400000e+001
    endloop
  endfacet
  facet normal  0.000000e+000  1.950902e-001 -9.807853e-001
    outer loop
      vertex  0.000000e+000  1.137599e-014  9.525000e+000
      vertex  5.075000e+001 -3.645060e+000  8.799953e+000
      vertex  0.000000e+000 -3.645060e+000  8.799953e+000
    endloop
  endfacet
  facet normal  0.000000e+000  5.555701e-001 -8.314697e-001
    outer loop
      vertex  0.000000e+000 -3.645060e+000  8.799953e+000
      vertex  5.075000e+001 -3.645060e+000  8.799953e+000
      vertex  5.075000e+001 -6.735192e+000  6.735192e+000
    endloop
  endfacet
  facet normal  0.000000e+000  5.555701e-001 -8.314697e-001
    outer loop
      vertex  0.000000e+000 -3.645060e+000  8.799953e+000
      vertex  5.075000e+001 -6.735192e+000  6.735192e+000
      vertex  0.000000e+000 -6.735192e+000  6.735192e+000
    endloop
  endfacet
  facet normal  0.000000e+000  8.314697e-001 -5.555701e-001
    outer loop
      vertex  0.000000e+000 -6.735192e+000  6.735192e+000
      vertex  5.075000e+001 -6.735192e+000  6.735192e+000
      vertex  5.075000e+001 -8.799953e+000  3.645060e+000
    endloop
  endfacet
  facet normal  0.000000e+000  8.314697e-001 -5.555701e-001
    outer loop
      vertex  0.000000e+000 -6.735192e+000  6.735192e+000
      vertex  5.075000e+001 -8.799953e+000  3.645060e+000
      vertex  0.000000e+000 -8.799953e+000  3.645060e+000
    endloop
  endfacet
  facet normal  0.000000e+000  9.807853e-001 -1.950902e-001
    outer loop
      vertex  0.000000e+000 -8.799953e+000  3.645060e+000
      vertex  5.075000e+001 -8.799953e+000  3.645060e+000
      vertex  5.075000e+001 -9.525000e+000  1.166438e-015
    endloop
  endfacet
  facet normal  0.000000e+000  9.807853e-001 -1.950902e-001
    outer loop
      vertex  0.000000e+000 -8.799953e+000  3.645060e+000
      vertex  5.075000e+001 -9.525000e+000  1.166438e-015
      vertex  0.000000e+000 -9.525000e+000  1.166438e-015
    endloop
  endfacet
  facet normal  3.252106e-017  1.950902e-001 -9.807853e-001
    outer loop
      vertex  5.075000e+001 -3.645060e+000  8.799953e+000
      vertex  0.000000e+000  1.137599e-014  9.525000e+000
      vertex  5.075000e+001  2.916094e-015  9.525000e+000
    endloop
  endfacet
  facet normal -3.252106e-017 -1.950902e-001 -9.807853e-001
    outer loop
      vertex  5.075000e+001  2.916094e-015  9.525000e+000
      vertex  0.000000e+000  1.137599e-014  9.525000e+000
      vertex  0.000000e+000  3.645060e+000  8.799953e+000
    endloop
  endfacet
  facet normal  0.000000e+000 -1.950902e-001 -9.807853e-001
    outer loop
      vertex  5.075000e+001  2.916094e-015  9.525000e+000
      vertex  0.000000e+000  3.645060e+000  8.799953e+000
      vertex  5.075000e+001  3.645060e+000  8.799953e+000
    endloop
  endfacet
  facet normal  -0.000000e+000 -5.555701e-001 -8.314697e-001
    outer loop
      vertex  5.075000e+001  3.645060e+000  8.799953e+000
      vertex  0.000000e+000  3.645060e+000  8.799953e+000
      vertex  0.000000e+000  6.735192e+000  6.735192e+000
    endloop
  endfacet
  facet normal  0.000000e+000 -5.555701e-001 -8.314697e-001
    outer loop
      vertex  5.075000e+001  3.645060e+000  8.799953e+000
      vertex  0.000000e+000  6.735192e+000  6.735192e+000
      vertex  5.075000e+001  6.735192e+000  6.735192e+000
    endloop
  endfacet
  facet normal  -0.000000e+000 -8.314697e-001 -5.555701e-001
    outer loop
      vertex  5.075000e+001  6.735192e+000  6.735192e+000
      vertex  0.000000e+000  6.735192e+000  6.735192e+000
      vertex  0.000000e+000  8.799953e+000  3.645060e+000
    endloop
  endfacet
  facet normal  0.000000e+000 -8.314697e-001 -5.555701e-001
    outer loop
      vertex  5.075000e+001  6.735192e+000  6.735192e+000
      vertex  0.000000e+000  8.799953e+000  3.645060e+000
      vertex  5.075000e+001  8.799953e+000  3.645060e+000
    endloop
  endfacet
  facet normal  -0.000000e+000 -9.807853e-001 -1.950902e-001
    outer loop
      vertex  5.075000e+001  8.799953e+000  3.645060e+000
      vertex  0.000000e+000  8.799953e+000  3.645060e+000
      vertex  0.000000e+000  9.525000e+000 -2.332875e-015
    endloop
  endfacet
  facet normal  0.000000e+000 -9.807853e-001 -1.950902e-001
    outer loop
      vertex  5.075000e+001  8.799953e+000  3.645060e+000
      vertex  0.000000e+000  9.525000e+000 -2.332875e-015
      vertex  5.075000e+001  9.525000e+000 -2.332875e-015
    endloop
  endfacet
  facet normal  0.000000e+000 -1.950902e-001  9.807853e-001
    outer loop
      vertex  0.000000e+000 -1.749656e-015 -9.525000e+000
      vertex  5.075000e+001  3.645060e+000 -8.799953e+000
      vertex  0.000000e+000  3.645060e+000 -8.799953e+000
    endloop
  endfacet
  facet normal  0.000000e+000 -5.555701e-001  8.314697e-001
    outer loop
      vertex  0.000000e+000  3.645060e+000 -8.799953e+000
      vertex  5.075000e+001  3.645060e+000 -8.799953e+000
      vertex  5.075000e+001  6.735192e+000 -6.735192e+000
    endloop
  endfacet
  facet normal  0.000000e+000 -5.555701e-001  8.314697e-001
    outer loop
      vertex  0.000000e+000  3.645060e+000 -8.799953e+000
      vertex  5.075000e+001  6.735192e+000 -6.735192e+000
      vertex  0.000000e+000  6.735192e+000 -6.735192e+000
    endloop
  endfacet
  facet normal  0.000000e+000 -8.314697e-001  5.555701e-001
    outer loop
      vertex  0.000000e+000  6.735192e+000 -6.735192e+000
      vertex  5.075000e+001  6.735192e+000 -6.735192e+000
      vertex  5.075000e+001  8.799953e+000 -3.645060e+000
    endloop
  endfacet
  facet normal  0.000000e+000 -8.314697e-001  5.555701e-001
    outer loop
      vertex  0.000000e+000  6.735192e+000 -6.735192e+000
      vertex  5.075000e+001  8.799953e+000 -3.645060e+000
      vertex  0.000000e+000  8.799953e+000 -3.645060e+000
    endloop
  endfacet
  facet normal  0.000000e+000 -9.807853e-001  1.950902e-001
    outer loop
      vertex  0.000000e+000  8.799953e+000 -3.645060e+000
      vertex  5.075000e+001  8.799953e+000 -3.645060e+000
      vertex  5.075000e+001  9.525000e+000 -2.332875e-015
    endloop
  endfacet
  facet normal  0.000000e+000 -9.807853e-001  1.950902e-001
    outer loop
      vertex  0.000000e+000  8.799953e+000 -3.645060e+000
      vertex  5.075000e+001  9.525000e+000 -2.332875e-015
      vertex  0.000000e+000  9.525000e+000 -2.332875e-015
    endloop
  endfacet
  facet normal  0.000000e+000 -1.950902e-001  9.807853e-001
    outer loop
      vertex  5.075000e+001  3.645060e+000 -8.799953e+000
      vertex  0.000000e+000 -1.749656e-015 -9.525000e+000
      vertex  5.075000e+001 -1.749656e-015 -9.525000e+000
    endloop
  endfacet
  facet normal  0.000000e+000  1.950902e-001  9.807853e-001
    outer loop
      vertex  5.075000e+001 -1.749656e-015 -9.525000e+000
      vertex  0.000000e+000 -1.749656e-015 -9.525000e+000
      vertex  0.000000e+000 -3.645060e+000 -8.799953e+000
    endloop
  endfacet
  facet normal  -0.000000e+000  1.950902e-001  9.807853e-001
    outer loop
      vertex  5.075000e+001 -1.749656e-015 -9.525000e+000
      vertex  0.000000e+000 -3.645060e+000 -8.799953e+000
      vertex  5.075000e+001 -3.645060e+000 -8.799953e+000
    endloop
  endfacet
  facet normal  0.000000e+000  5.555701e-001  8.314697e-001
    outer loop
      vertex  5.075000e+001 -3.645060e+000 -8.799953e+000
      vertex  0.000000e+000 -3.645060e+000 -8.799953e+000
      vertex  0.000000e+000 -6.735192e+000 -6.735192e+000
    endloop
  endfacet
  facet normal  -0.000000e+000  5.555701e-001  8.314697e-001
    outer loop
      vertex  5.075000e+001 -3.645060e+000 -8.799953e+000
      vertex  0.000000e+000 -6.735192e+000 -6.735192e+000
      vertex  5.075000e+001 -6.735192e+000 -6.735192e+000
    endloop
  endfacet
  facet normal  0.000000e+000  8.314697e-001  5.555701e-001
    outer loop
      vertex  5.075000e+001 -6.735192e+000 -6.735192e+000
      vertex  0.000000e+000 -6.735192e+000 -6.735192e+000
      vertex  0.000000e+000 -8.799953e+000 -3.645060e+000
    endloop
  endfacet
  facet normal  -0.000000e+000  8.314697e-001  5.555701e-001
    outer loop
      vertex  5.075000e+001 -6.735192e+000 -6.735192e+000
      vertex  0.000000e+000 -8.799953e+000 -3.645060e+000
      vertex  5.075000e+001 -8.799953e+000 -3.645060e+000
    endloop
  endfacet
  facet normal  0.000000e+000  9.807853e-001  1.950902e-001
    outer loop
      vertex  5.075000e+001 -8.799953e+000 -3.645060e+000
      vertex  0.000000e+000 -8.799953e+000 -3.645060e+000
      vertex  0.000000e+000 -9.525000e+000  1.166438e-015
    endloop
  endfacet
  facet normal  -0.000000e+000  9.807853e-001  1.950902e-001
    outer loop
      vertex  5.075000e+001 -8.799953e+000 -3.645060e+000
      vertex  0.000000e+000 -9.525000e+000  1.166438e-015
      vertex  5.075000e+001 -9.525000e+000  1.166438e-015
    endloop
  endfacet
  facet normal  9.999999e-001  0.000000e+000  0.000000e+000
    outer loop
      vertex  5.075000e+001  8.228993e+000  1.132624e+001
      vertex  5.075000e+001  4.326238e+000  1.331479e+001
      vertex  5.075000e+001  2.916094e-015  9.525000e+000
    endloop
  endfacet
  facet normal  9.999999e-001  0.000000e+000  -0.000000e+000
    outer loop
      vertex  5.075000e+001  2.916094e-015  9.525000e+000
      vertex  5.075000e+001  4.326238e+000  1.331479e+001
      vertex  5.075000e+001  8.572244e-016  1.400000e+001
    endloop
  endfacet
  facet normal  1.000000e+000  0.000000e+000  0.000000e+000
    outer loop
      vertex  5.075000e+001  2.916094e-015  9.525000e+000
      vertex  5.075000e+001  8.572244e-016  1.400000e+001
      vertex  5.075000e+001 -8.228993e+000  1.132624e+001
    endloop
  endfacet
  facet normal  1.000000e+000  0.000000e+000  0.000000e+000
    outer loop
      vertex  5.075000e+001 -8.228993e+000  1.132624e+001
      vertex  5.075000e+001  8.572244e-016  1.400000e+001
      vertex  5.075000e+001 -4.326238e+000  1.331479e+001
    endloop
  endfacet
  facet normal  1.000000e+000  0.000000e+000  0.000000e+000
    outer loop
      vertex  5.075000e+001  2.916094e-015  9.525000e+000
      vertex  5.075000e+001 -8.228993e+000  1.132624e+001
      vertex  5.075000e+001 -3.645060e+000  8.799953e+000
    endloop
  endfacet
  facet normal  1.000000e+000  0.000000e+000  0.000000e+000
    outer loop
      vertex  5.075000e+001 -3.645060e+000  8.799953e+000
      vertex  5.075000e+001 -8.228993e+000  1.132624e+001
      vertex  5.075000e+001 -1.132624e+001  8.228993e+000
    endloop
  endfacet
  facet normal  1.000000e+000  -0.000000e+000  0.000000e+000
    outer loop
      vertex  5.075000e+001 -3.645060e+000  8.799953e+000
      vertex  5.075000e+001 -1.132624e+001  8.228993e+000
      vertex  5.075000e+001 -6.735192e+000  6.735192e+000
    endloop
  endfacet
  facet normal  1.000000e+000  0.000000e+000  0.000000e+000
    outer loop
      vertex  5.075000e+001 -6.735192e+000  6.735192e+000
      vertex  5.075000e+001 -1.132624e+001  8.228993e+000
      vertex  5.075000e+001 -1.331479e+001  4.326238e+000
    endloop
  endfacet
  facet normal  9.999999e-001  -0.000000e+000  0.000000e+000
    outer loop
      vertex  5.075000e+001 -6.735192e+000  6.735192e+000
      vertex  5.075000e+001 -1.331479e+001  4.326238e+000
      vertex  5.075000e+001 -8.799953e+000  3.645060e+000
    endloop
  endfacet
  facet normal  1.000000e+000  0.000000e+000  0.000000e+000
    outer loop
      vertex  5.075000e+001 -8.799953e+000  3.645060e+000
      vertex  5.075000e+001 -1.331479e+001  4.326238e+000
      vertex  5.075000e+001 -9.525000e+000  1.166438e-015
    endloop
  endfacet
  facet normal  9.999999e-001  0.000000e+000  0.000000e+000
    outer loop
      vertex  5.075000e+001 -9.525000e+000  1.166438e-015
      vertex  5.075000e+001 -1.331479e+001  4.326238e+000
      vertex  5.075000e+001 -1.400000e+001  1.714449e-015
    endloop
  endfacet
  facet normal  1.000000e+000  0.000000e+000  0.000000e+000
    outer loop
      vertex  5.075000e+001 -9.525000e+000  1.166438e-015
      vertex  5.075000e+001 -1.400000e+001  1.714449e-015
      vertex  5.075000e+001 -8.799953e+000 -3.645060e+000
    endloop
  endfacet
  facet normal  1.000000e+000  0.000000e+000  0.000000e+000
    outer loop
      vertex  5.075000e+001 -8.799953e+000 -3.645060e+000
      vertex  5.075000e+001 -1.400000e+001  1.714449e-015
      vertex  5.075000e+001 -1.331479e+001 -4.326238e+000
    endloop
  endfacet
  facet normal  9.999999e-001  -0.000000e+000  0.000000e+000
    outer loop
      vertex  5.075000e+001 -8.799953e+000 -3.645060e+000
      vertex  5.075000e+001 -1.331479e+001 -4.326238e+000
      vertex  5.075000e+001 -6.735192e+000 -6.735192e+000
    endloop
  endfacet
  facet normal  1.000000e+000  0.000000e+000  0.000000e+000
    outer loop
      vertex  5.075000e+001 -6.735192e+000 -6.735192e+000
      vertex  5.075000e+001 -1.331479e+001 -4.326238e+000
      vertex  5.075000e+001 -1.132624e+001 -8.228993e+000
    endloop
  endfacet
  facet normal  1.000000e+000  -0.000000e+000  0.000000e+000
    outer loop
      vertex  5.075000e+001 -6.735192e+000 -6.735192e+000
      vertex  5.075000e+001 -1.132624e+001 -8.228993e+000
      vertex  5.075000e+001 -3.645060e+000 -8.799953e+000
    endloop
  endfacet
  facet normal  1.000000e+000  0.000000e+000  0.000000e+000
    outer loop
      vertex  5.075000e+001 -3.645060e+000 -8.799953e+000
      vertex  5.075000e+001 -1.132624e+001 -8.228993e+000
      vertex  5.075000e+001 -1.749656e-015 -9.525000e+000
    endloop
  endfacet
  facet normal  9.999999e-001  0.000000e+000  0.000000e+000
    outer loop
      vertex  5.075000e+001 -1.749656e-015 -9.525000e+000
      vertex  5.075000e+001 -1.132624e+001 -8.228993e+000
      vertex  5.075000e+001 -8.228993e+000 -1.132624e+001
    endloop
  endfacet
  facet normal  1.000000e+000  -0.000000e+000  0.000000e+000
    outer loop
      vertex  5.075000e+001 -1.749656e-015 -9.525000e+000
      vertex  5.075000e+001 -8.228993e+000 -1.132624e+001
      vertex  5.075000e+001 -2.571673e-015 -1.400000e+001
    endloop
  endfacet
  facet normal  1.000000e+000  0.000000e+000  0.000000e+000
    outer loop
      vertex  5.075000e+001 -2.571673e-015 -1.400000e+001
      vertex  5.075000e+001 -8.228993e+000 -1.132624e+001
      vertex  5.075000e+001 -4.326238e+000 -1.331479e+001
    endloop
  endfacet
  facet normal  9.999999e-001  -0.000000e+000  0.000000e+000
    outer loop
      vertex  5.075000e+001  8.228993e+000  1.132624e+001
      vertex  5.075000e+001  2.916094e-015  9.525000e+000
      vertex  5.075000e+001  1.132624e+001  8.228993e+000
    endloop
  endfacet
  facet normal  1.000000e+000  0.000000e+000  0.000000e+000
    outer loop
      vertex  5.075000e+001  1.132624e+001  8.228993e+000
      vertex  5.075000e+001  2.916094e-015  9.525000e+000
      vertex  5.075000e+001  3.645060e+000  8.799953e+000
    endloop
  endfacet
  facet normal  1.000000e+000  0.000000e+000  0.000000e+000
    outer loop
      vertex  5.075000e+001  1.132624e+001  8.228993e+000
      vertex  5.075000e+001  3.645060e+000  8.799953e+000
      vertex  5.075000e+001  1.331479e+001  4.326238e+000
    endloop
  endfacet
  facet normal  1.000000e+000  0.000000e+000  0.000000e+000
    outer loop
      vertex  5.075000e+001  1.331479e+001  4.326238e+000
      vertex  5.075000e+001  3.645060e+000  8.799953e+000
      vertex  5.075000e+001  6.735192e+000  6.735192e+000
    endloop
  endfacet
  facet normal  9.999999e-001  0.000000e+000  0.000000e+000
    outer loop
      vertex  5.075000e+001  1.331479e+001  4.326238e+000
      vertex  5.075000e+001  6.735192e+000  6.735192e+000
      vertex  5.075000e+001  8.799953e+000  3.645060e+000
    endloop
  endfacet
  facet normal  1.000000e+000  -0.000000e+000  0.000000e+000
    outer loop
      vertex  5.075000e+001  1.331479e+001  4.326238e+000
      vertex  5.075000e+001  8.799953e+000  3.645060e+000
      vertex  5.075000e+001  1.400000e+001  0.000000e+000
    endloop
  endfacet
  facet normal  1.000000e+000  0.000000e+000  0.000000e+000
    outer loop
      vertex  5.075000e+001  1.400000e+001  0.000000e+000
      vertex  5.075000e+001  8.799953e+000  3.645060e+000
      vertex  5.075000e+001  9.525000e+000 -2.332875e-015
    endloop
  endfacet
  facet normal  9.999999e-001  -0.000000e+000  0.000000e+000
    outer loop
      vertex  5.075000e+001  1.400000e+001  0.000000e+000
      vertex  5.075000e+001  9.525000e+000 -2.332875e-015
      vertex  5.075000e+001  1.331479e+001 -4.326238e+000
    endloop
  endfacet
  facet normal  1.000000e+000  0.000000e+000  0.000000e+000
    outer loop
      vertex  5.075000e+001  1.331479e+001 -4.326238e+000
      vertex  5.075000e+001  9.525000e+000 -2.332875e-015
      vertex  5.075000e+001  8.799953e+000 -3.645060e+000
    endloop
  endfacet
  facet normal  1.000000e+000  0.000000e+000  0.000000e+000
    outer loop
      vertex  5.075000e+001  1.331479e+001 -4.326238e+000
      vertex  5.075000e+001  8.799953e+000 -3.645060e+000
      vertex  5.075000e+001  1.132624e+001 -8.228993e+000
    endloop
  endfacet
  facet normal  1.000000e+000  0.000000e+000  0.000000e+000
    outer loop
      vertex  5.075000e+001  1.132624e+001 -8.228993e+000
      vertex  5.075000e+001  8.799953e+000 -3.645060e+000
      vertex  5.075000e+001  6.735192e+000 -6.735192e+000
    endloop
  endfacet
  facet normal  1.000000e+000  0.000000e+000  0.000000e+000
    outer loop
      vertex  5.075000e+001  1.132624e+001 -8.228993e+000
      vertex  5.075000e+001  6.735192e+000 -6.735192e+000
      vertex  5.075000e+001  3.645060e+000 -8.799953e+000
    endloop
  endfacet
  facet normal  1.000000e+000  -0.000000e+000  0.000000e+000
    outer loop
      vertex  5.075000e+001  1.132624e+001 -8.228993e+000
      vertex  5.075000e+001  3.645060e+000 -8.799953e+000
      vertex  5.075000e+001  8.228993e+000 -1.132624e+001
    endloop
  endfacet
  facet normal  1.000000e+000  0.000000e+000  0.000000e+000
    outer loop
      vertex  5.075000e+001  8.228993e+000 -1.132624e+001
      vertex  5.075000e+001  3.645060e+000 -8.799953e+000
      vertex  5.075000e+001 -1.749656e-015 -9.525000e+000
    endloop
  endfacet
  facet normal  9.999999e-001  0.000000e+000  0.000000e+000
    outer loop
      vertex  5.075000e+001  8.228993e+000 -1.132624e+001
      vertex  5.075000e+001 -1.749656e-015 -9.525000e+000
      vertex  5.075000e+001  4.326238e+000 -1.331479e+001
    endloop
  endfacet
  facet normal  9.999999e-001  0.000000e+000  0.000000e+000
    outer loop
      vertex  5.075000e+001  4.326238e+000 -1.331479e+001
      vertex  5.075000e+001 -1.749656e-015 -9.525000e+000
      vertex  5.075000e+001 -2.571673e-015 -1.400000e+001
    endloop
  endfacet
  facet normal  0.000000e+000 -9.848078e-001  1.736481e-001
    outer loop
      vertex  7.500000e-001 -1.270000e+001  1.555250e-015
      vertex  5.000000e+001 -1.270000e+001  1.555250e-015
      vertex  7.500000e-001 -1.193410e+001  4.343656e+000
    endloop
  endfacet
  facet normal  0.000000e+000 -9.848078e-001  1.736481e-001
    outer loop
      vertex  7.500000e-001 -1.193410e+001  4.343656e+000
      vertex  5.000000e+001 -1.270000e+001  1.555250e-015
      vertex  5.000000e+001 -1.193410e+001  4.343656e+000
    endloop
  endfacet
  facet normal  0.000000e+000 -8.660254e-001  5.000000e-001
    outer loop
      vertex  7.500000e-001 -1.193410e+001  4.343656e+000
      vertex  5.000000e+001 -1.193410e+001  4.343656e+000
      vertex  7.500000e-001 -9.728765e+000  8.163403e+000
    endloop
  endfacet
  facet normal  0.000000e+000 -8.660254e-001  5.000000e-001
    outer loop
      vertex  7.500000e-001 -9.728765e+000  8.163403e+000
      vertex  5.000000e+001 -1.193410e+001  4.343656e+000
      vertex  5.000000e+001 -9.728765e+000  8.163403e+000
    endloop
  endfacet
  facet normal  0.000000e+000 -6.427876e-001  7.660444e-001
    outer loop
      vertex  7.500000e-001 -9.728765e+000  8.163403e+000
      vertex  5.000000e+001 -9.728765e+000  8.163403e+000
      vertex  7.500000e-001 -6.350000e+000  1.099852e+001
    endloop
  endfacet
  facet normal  0.000000e+000 -6.427876e-001  7.660444e-001
    outer loop
      vertex  7.500000e-001 -6.350000e+000  1.099852e+001
      vertex  5.000000e+001 -9.728765e+000  8.163403e+000
      vertex  5.000000e+001 -6.350000e+000  1.099852e+001
    endloop
  endfacet
  facet normal  0.000000e+000 -3.420200e-001  9.396926e-001
    outer loop
      vertex  7.500000e-001 -6.350000e+000  1.099852e+001
      vertex  5.000000e+001 -6.350000e+000  1.099852e+001
      vertex  7.500000e-001 -2.205332e+000  1.250706e+001
    endloop
  endfacet
  facet normal  0.000000e+000 -3.420200e-001  9.396926e-001
    outer loop
      vertex  7.500000e-001 -2.205332e+000  1.250706e+001
      vertex  5.000000e+001 -6.350000e+000  1.099852e+001
      vertex  5.000000e+001 -2.205332e+000  1.250706e+001
    endloop
  endfacet
  facet normal  0.000000e+000  0.000000e+000  1.000000e+000
    outer loop
      vertex  7.500000e-001 -2.205332e+000  1.250706e+001
      vertex  5.000000e+001 -2.205332e+000  1.250706e+001
      vertex  7.500000e-001  2.205332e+000  1.250706e+001
    endloop
  endfacet
  facet normal  -0.000000e+000  0.000000e+000  1.000000e+000
    outer loop
      vertex  7.500000e-001  2.205332e+000  1.250706e+001
      vertex  5.000000e+001 -2.205332e+000  1.250706e+001
      vertex  5.000000e+001  2.205332e+000  1.250706e+001
    endloop
  endfacet
  facet normal  0.000000e+000  3.420200e-001  9.396926e-001
    outer loop
      vertex  7.500000e-001  2.205332e+000  1.250706e+001
      vertex  5.000000e+001  2.205332e+000  1.250706e+001
      vertex  7.500000e-001  6.350000e+000  1.099852e+001
    endloop
  endfacet
  facet normal  -0.000000e+000  3.420200e-001  9.396926e-001
    outer loop
      vertex  7.500000e-001  6.350000e+000  1.099852e+001
      vertex  5.000000e+001  2.205332e+000  1.250706e+001
      vertex  5.000000e+001  6.350000e+000  1.099852e+001
    endloop
  endfacet
  facet normal  0.000000e+000  6.427876e-001  7.660444e-001
    outer loop
      vertex  7.500000e-001  6.350000e+000  1.099852e+001
      vertex  5.000000e+001  6.350000e+000  1.099852e+001
      vertex  7.500000e-001  9.728765e+000  8.163403e+000
    endloop
  endfacet
  facet normal  -0.000000e+000  6.427876e-001  7.660444e-001
    outer loop
      vertex  7.500000e-001  9.728765e+000  8.163403e+000
      vertex  5.000000e+001  6.350000e+000  1.099852e+001
      vertex  5.000000e+001  9.728765e+000  8.163403e+000
    endloop
  endfacet
  facet normal  0.000000e+000  8.660254e-001  5.000000e-001
    outer loop
      vertex  7.500000e-001  9.728765e+000  8.163403e+000
      vertex  5.000000e+001  9.728765e+000  8.163403e+000
      vertex  7.500000e-001  1.193410e+001  4.343656e+000
    endloop
  endfacet
  facet normal  -0.000000e+000  8.660254e-001  5.000000e-001
    outer loop
      vertex  7.500000e-001  1.193410e+001  4.343656e+000
      vertex  5.000000e+001  9.728765e+000  8.163403e+000
      vertex  5.000000e+001  1.193410e+001  4.343656e+000
    endloop
  endfacet
  facet normal  0.000000e+000  9.848078e-001  1.736481e-001
    outer loop
      vertex  7.500000e-001  1.193410e+001  4.343656e+000
      vertex  5.000000e+001  1.193410e+001  4.343656e+000
      vertex  7.500000e-001  1.270000e+001  0.000000e+000
    endloop
  endfacet
  facet normal  -0.000000e+000  9.848078e-001  1.736481e-001
    outer loop
      vertex  7.500000e-001  1.270000e+001  0.000000e+000
      vertex  5.000000e+001  1.193410e+001  4.343656e+000
      vertex  5.000000e+001  1.270000e+001  0.000000e+000
    endloop
  endfacet
  facet normal  0.000000e+000  9.848078e-001 -1.736481e-001
    outer loop
      vertex  7.500000e-001  1.270000e+001  0.000000e+000
      vertex  5.000000e+001  1.270000e+001  0.000000e+000
      vertex  7.500000e-001  1.193410e+001 -4.343656e+000
    endloop
  endfacet
  facet normal  0.000000e+000  9.848078e-001 -1.736481e-001
    outer loop
      vertex  7.500000e-001  1.193410e+001 -4.343656e+000
      vertex  5.000000e+001  1.270000e+001  0.000000e+000
      vertex  5.000000e+001  1.193410e+001 -4.343656e+000
    endloop
  endfacet
  facet normal  0.000000e+000  8.660254e-001 -5.000000e-001
    outer loop
      vertex  7.500000e-001  1.193410e+001 -4.343656e+000
      vertex  5.000000e+001  1.193410e+001 -4.343656e+000
      vertex  7.500000e-001  9.728765e+000 -8.163403e+000
    endloop
  endfacet
  facet normal  0.000000e+000  8.660254e-001 -5.000000e-001
    outer loop
      vertex  7.500000e-001  9.728765e+000 -8.163403e+000
      vertex  5.000000e+001  1.193410e+001 -4.343656e+000
      vertex  5.000000e+001  9.728765e+000 -8.163403e+000
    endloop
  endfacet
  facet normal  0.000000e+000  6.427876e-001 -7.660444e-001
    outer loop
      vertex  7.500000e-001  9.728765e+000 -8.163403e+000
      vertex  5.000000e+001  9.728765e+000 -8.163403e+000
      vertex  7.500000e-001  6.350000e+000 -1.099852e+001
    endloop
  endfacet
  facet normal  0.000000e+000  6.427876e-001 -7.660444e-001
    outer loop
      vertex  7.500000e-001  6.350000e+000 -1.099852e+001
      vertex  5.000000e+001  9.728765e+000 -8.163403e+000
      vertex  5.000000e+001  6.350000e+000 -1.099852e+001
    endloop
  endfacet
  facet normal  0.000000e+000  3.420200e-001 -9.396926e-001
    outer loop
      vertex  7.500000e-001  6.350000e+000 -1.099852e+001
      vertex  5.000000e+001  6.350000e+000 -1.099852e+001
      vertex  7.500000e-001  2.205332e+000 -1.250706e+001
    endloop
  endfacet
  facet normal  0.000000e+000  3.420200e-001 -9.396926e-001
    outer loop
      vertex  7.500000e-001  2.205332e+000 -1.250706e+001
      vertex  5.000000e+001  6.350000e+000 -1.099852e+001
      vertex  5.000000e+001  2.205332e+000 -1.250706e+001
    endloop
  endfacet
  facet normal  -0.000000e+000  0.000000e+000 -1.000000e+000
    outer loop
      vertex  7.500000e-001  2.205332e+000 -1.250706e+001
      vertex  5.000000e+001  2.205332e+000 -1.250706e+001
      vertex  7.500000e-001 -2.205332e+000 -1.250706e+001
    endloop
  endfacet
  facet normal  0.000000e+000  0.000000e+000 -1.000000e+000
    outer loop
      vertex  7.500000e-001 -2.205332e+000 -1.250706e+001
      vertex  5.000000e+001  2.205332e+000 -1.250706e+001
      vertex  5.000000e+001 -2.205332e+000 -1.250706e+001
    endloop
  endfacet
  facet normal  -0.000000e+000 -3.420200e-001 -9.396926e-001
    outer loop
      vertex  7.500000e-001 -2.205332e+000 -1.250706e+001
      vertex  5.000000e+001 -2.205332e+000 -1.250706e+001
      vertex  7.500000e-001 -6.350000e+000 -1.099852e+001
    endloop
  endfacet
  facet normal  0.000000e+000 -3.420200e-001 -9.396926e-001
    outer loop
      vertex  7.500000e-001 -6.350000e+000 -1.099852e+001
      vertex  5.000000e+001 -2.205332e+000 -1.250706e+001
      vertex  5.000000e+001 -6.350000e+000 -1.099852e+001
    endloop
  endfacet
  facet normal  -0.000000e+000 -6.427876e-001 -7.660444e-001
    outer loop
      vertex  7.500000e-001 -6.350000e+000 -1.099852e+001
      vertex  5.000000e+001 -6.350000e+000 -1.099852e+001
      vertex  7.500000e-001 -9.728765e+000 -8.163403e+000
    endloop
  endfacet
  facet normal  0.000000e+000 -6.427876e-001 -7.660444e-001
    outer loop
      vertex  7.500000e-001 -9.728765e+000 -8.163403e+000
      vertex  5.000000e+001 -6.350000e+000 -1.099852e+001
      vertex  5.000000e+001 -9.728765e+000 -8.163403e+000
    endloop
  endfacet
  facet normal  -0.000000e+000 -8.660254e-001 -5.000000e-001
    outer loop
      vertex  7.500000e-001 -9.728765e+000 -8.163403e+000
      vertex  5.000000e+001 -9.728765e+000 -8.163403e+000
      vertex  7.500000e-001 -1.193410e+001 -4.343656e+000
    endloop
  endfacet
  facet normal  0.000000e+000 -8.660254e-001 -5.000000e-001
    outer loop
      vertex  7.500000e-001 -1.193410e+001 -4.343656e+000
      vertex  5.000000e+001 -9.728765e+000 -8.163403e+000
      vertex  5.000000e+001 -1.193410e+001 -4.343656e+000
    endloop
  endfacet
  facet normal  -0.000000e+000 -9.848078e-001 -1.736481e-001
    outer loop
      vertex  7.500000e-001 -1.193410e+001 -4.343656e+000
      vertex  5.000000e+001 -1.193410e+001 -4.343656e+000
      vertex  7.500000e-001 -1.270000e+001  1.555250e-015
    endloop
  endfacet
  facet normal  0.000000e+000 -9.848078e-001 -1.736481e-001
    outer loop
      vertex  7.500000e-001 -1.270000e+001  1.555250e-015
      vertex  5.000000e+001 -1.193410e+001 -4.343656e+000
      vertex  5.000000e+001 -1.270000e+001  1.555250e-015
    endloop
  endfacet
  facet normal  1.000000e+000  0.000000e+000  0.000000e+000
    outer loop
      vertex  7.500000e-001 -2.251400e-015  1.400000e+001
      vertex  7.500000e-001 -2.205332e+000  1.250706e+001
      vertex  7.500000e-001  4.326238e+000  1.331479e+001
    endloop
  endfacet
  facet normal  9.999999e-001  0.000000e+000  0.000000e+000
    outer loop
      vertex  7.500000e-001  4.326238e+000  1.331479e+001
      vertex  7.500000e-001 -2.205332e+000  1.250706e+001
      vertex  7.500000e-001  2.205332e+000  1.250706e+001
    endloop
  endfacet
  facet normal  9.999999e-001  -0.000000e+000  0.000000e+000
    outer loop
      vertex  7.500000e-001  4.326238e+000  1.331479e+001
      vertex  7.500000e-001  2.205332e+000  1.250706e+001
      vertex  7.500000e-001  8.228993e+000  1.132624e+001
    endloop
  endfacet
  facet normal  1.000000e+000  0.000000e+000  0.000000e+000
    outer loop
      vertex  7.500000e-001  8.228993e+000  1.132624e+001
      vertex  7.500000e-001  2.205332e+000  1.250706e+001
      vertex  7.500000e-001  6.350000e+000  1.099852e+001
    endloop
  endfacet
  facet normal  1.000000e+000  -0.000000e+000  0.000000e+000
    outer loop
      vertex  7.500000e-001  8.228993e+000  1.132624e+001
      vertex  7.500000e-001  6.350000e+000  1.099852e+001
      vertex  7.500000e-001  1.132624e+001  8.228993e+000
    endloop
  endfacet
  facet normal  1.000000e+000  0.000000e+000  0.000000e+000
    outer loop
      vertex  7.500000e-001  1.132624e+001  8.228993e+000
      vertex  7.500000e-001  6.350000e+000  1.099852e+001
      vertex  7.500000e-001  9.728765e+000  8.163403e+000
    endloop
  endfacet
  facet normal  1.000000e+000  -0.000000e+000  0.000000e+000
    outer loop
      vertex  7.500000e-001  1.132624e+001  8.228993e+000
      vertex  7.500000e-001  9.728765e+000  8.163403e+000
      vertex  7.500000e-001  1.331479e+001  4.326238e+000
    endloop
  endfacet
  facet normal  1.000000e+000  0.000000e+000  0.000000e+000
    outer loop
      vertex  7.500000e-001  1.331479e+001  4.326238e+000
      vertex  7.500000e-001  9.728765e+000  8.163403e+000
      vertex  7.500000e-001  1.193410e+001  4.343656e+000
    endloop
  endfacet
  facet normal  1.000000e+000  0.000000e+000  0.000000e+000
    outer loop
      vertex  7.500000e-001  1.331479e+001  4.326238e+000
      vertex  7.500000e-001  1.193410e+001  4.343656e+000
      vertex  7.500000e-001  1.400000e+001  0.000000e+000
    endloop
  endfacet
  facet normal  1.000000e+000  0.000000e+000  0.000000e+000
    outer loop
      vertex  7.500000e-001  1.400000e+001  0.000000e+000
      vertex  7.500000e-001  1.193410e+001  4.343656e+000
      vertex  7.500000e-001  1.270000e+001  0.000000e+000
    endloop
  endfacet
  facet normal  1.000000e+000  -0.000000e+000  0.000000e+000
    outer loop
      vertex  7.500000e-001  1.400000e+001  0.000000e+000
      vertex  7.500000e-001  1.270000e+001  0.000000e+000
      vertex  7.500000e-001  1.331479e+001 -4.326238e+000
    endloop
  endfacet
  facet normal  9.999999e-001  0.000000e+000  0.000000e+000
    outer loop
      vertex  7.500000e-001  1.331479e+001 -4.326238e+000
      vertex  7.500000e-001  1.270000e+001  0.000000e+000
      vertex  7.500000e-001  1.193410e+001 -4.343656e+000
    endloop
  endfacet
  facet normal  9.999999e-001  -0.000000e+000  0.000000e+000
    outer loop
      vertex  7.500000e-001  1.331479e+001 -4.326238e+000
      vertex  7.500000e-001  1.193410e+001 -4.343656e+000
      vertex  7.500000e-001  1.132624e+001 -8.228993e+000
    endloop
  endfacet
  facet normal  1.000000e+000  0.000000e+000  -0.000000e+000
    outer loop
      vertex  7.500000e-001  1.132624e+001 -8.228993e+000
      vertex  7.500000e-001  1.193410e+001 -4.343656e+000
      vertex  7.500000e-001  9.728765e+000 -8.163403e+000
    endloop
  endfacet
  facet normal  1.000000e+000  0.000000e+000  0.000000e+000
    outer loop
      vertex  7.500000e-001  1.132624e+001 -8.228993e+000
      vertex  7.500000e-001  9.728765e+000 -8.163403e+000
      vertex  7.500000e-001  8.228993e+000 -1.132624e+001
    endloop
  endfacet
  facet normal  1.000000e+000  0.000000e+000  -0.000000e+000
    outer loop
      vertex  7.500000e-001  8.228993e+000 -1.132624e+001
      vertex  7.500000e-001  9.728765e+000 -8.163403e+000
      vertex  7.500000e-001  6.350000e+000 -1.099852e+001
    endloop
  endfacet
  facet normal  1.000000e+000  0.000000e+000  0.000000e+000
    outer loop
      vertex  7.500000e-001  8.228993e+000 -1.132624e+001
      vertex  7.500000e-001  6.350000e+000 -1.099852e+001
      vertex  7.500000e-001  4.326238e+000 -1.331479e+001
    endloop
  endfacet
  facet normal  1.000000e+000  0.000000e+000  -0.000000e+000
    outer loop
      vertex  7.500000e-001  4.326238e+000 -1.331479e+001
      vertex  7.500000e-001  6.350000e+000 -1.099852e+001
      vertex  7.500000e-001  2.205332e+000 -1.250706e+001
    endloop
  endfacet
  facet normal  1.000000e+000  0.000000e+000  0.000000e+000
    outer loop
      vertex  7.500000e-001  4.326238e+000 -1.331479e+001
      vertex  7.500000e-001  2.205332e+000 -1.250706e+001
      vertex  7.500000e-001 -2.571673e-015 -1.400000e+001
    endloop
  endfacet
  facet normal  1.000000e+000  0.000000e+000  -0.000000e+000
    outer loop
      vertex  7.500000e-001 -2.571673e-015 -1.400000e+001
      vertex  7.500000e-001  2.205332e+000 -1.250706e+001
      vertex  7.500000e-001 -2.205332e+000 -1.250706e+001
    endloop
  endfacet
  facet normal  1.000000e+000  0.000000e+000  0.000000e+000
    outer loop
      vertex  7.500000e-001 -2.571673e-015 -1.400000e+001
      vertex  7.500000e-001 -2.205332e+000 -1.250706e+001
      vertex  7.500000e-001 -4.326238e+000 -1.331479e+001
    endloop
  endfacet
  facet normal  9.999999e-001  0.000000e+000  0.000000e+000
    outer loop
      vertex  7.500000e-001 -4.326238e+000 -1.331479e+001
      vertex  7.500000e-001 -2.205332e+000 -1.250706e+001
      vertex  7.500000e-001 -8.228993e+000 -1.132624e+001
    endloop
  endfacet
  facet normal  1.000000e+000  -0.000000e+000  0.000000e+000
    outer loop
      vertex  7.500000e-001 -8.228993e+000 -1.132624e+001
      vertex  7.500000e-001 -2.205332e+000 -1.250706e+001
      vertex  7.500000e-001 -6.350000e+000 -1.099852e+001
    endloop
  endfacet
  facet normal  1.000000e+000  0.000000e+000  0.000000e+000
    outer loop
      vertex  7.500000e-001 -8.228993e+000 -1.132624e+001
      vertex  7.500000e-001 -6.350000e+000 -1.099852e+001
      vertex  7.500000e-001 -1.132624e+001 -8.228993e+000
    endloop
  endfacet
  facet normal  1.000000e+000  -0.000000e+000  0.000000e+000
    outer loop
      vertex  7.500000e-001 -1.132624e+001 -8.228993e+000
      vertex  7.500000e-001 -6.350000e+000 -1.099852e+001
      vertex  7.500000e-001 -9.728765e+000 -8.163403e+000
    endloop
  endfacet
  facet normal  1.000000e+000  0.000000e+000  0.000000e+000
    outer loop
      vertex  7.500000e-001 -1.132624e+001 -8.228993e+000
      vertex  7.500000e-001 -9.728765e+000 -8.163403e+000
      vertex  7.500000e-001 -1.331479e+001 -4.326238e+000
    endloop
  endfacet
  facet normal  1.000000e+000  0.000000e+000  0.000000e+000
    outer loop
      vertex  7.500000e-001 -1.331479e+001 -4.326238e+000
      vertex  7.500000e-001 -9.728765e+000 -8.163403e+000
      vertex  7.500000e-001 -1.193410e+001 -4.343656e+000
    endloop
  endfacet
  facet normal  1.000000e+000  0.000000e+000  0.000000e+000
    outer loop
      vertex  7.500000e-001 -1.331479e+001 -4.326238e+000
      vertex  7.500000e-001 -1.193410e+001 -4.343656e+000
      vertex  7.500000e-001 -1.400000e+001 -4.502800e-015
    endloop
  endfacet
  facet normal  1.000000e+000  -0.000000e+000  0.000000e+000
    outer loop
      vertex  7.500000e-001 -1.400000e+001 -4.502800e-015
      vertex  7.500000e-001 -1.193410e+001 -4.343656e+000
      vertex  7.500000e-001 -1.270000e+001  1.555250e-015
    endloop
  endfacet
  facet normal  1.000000e+000  0.000000e+000  0.000000e+000
    outer loop
      vertex  7.500000e-001 -1.400000e+001 -4.502800e-015
      vertex  7.500000e-001 -1.270000e+001  1.555250e-015
      vertex  7.500000e-001 -1.331479e+001  4.326238e+000
    endloop
  endfacet
  facet normal  9.999999e-001  -0.000000e+000  0.000000e+000
    outer loop
      vertex  7.500000e-001 -1.331479e+001  4.326238e+000
      vertex  7.500000e-001 -1.270000e+001  1.555250e-015
      vertex  7.500000e-001 -1.193410e+001  4.343656e+000
    endloop
  endfacet
  facet normal  9.999999e-001  0.000000e+000  -0.000000e+000
    outer loop
      vertex  7.500000e-001 -1.331479e+001  4.326238e+000
      vertex  7.500000e-001 -1.193410e+001  4.343656e+000
      vertex  7.500000e-001 -1.132624e+001  8.228993e+000
    endloop
  endfacet
  facet normal  1.000000e+000  0.000000e+000  0.000000e+000
    outer loop
      vertex  7.500000e-001 -1.132624e+001  8.228993e+000
      vertex  7.500000e-001 -1.193410e+001  4.343656e+000
      vertex  7.500000e-001 -9.728765e+000  8.163403e+000
    endloop
  endfacet
  facet normal  1.000000e+000  0.000000e+000  -0.000000e+000
    outer loop
      vertex  7.500000e-001 -1.132624e+001  8.228993e+000
      vertex  7.500000e-001 -9.728765e+000  8.163403e+000
      vertex  7.500000e-001 -8.228993e+000  1.132624e+001
    endloop
  endfacet
  facet normal  1.000000e+000  0.000000e+000  0.000000e+000
    outer loop
      vertex  7.500000e-001 -8.228993e+000  1.132624e+001
      vertex  7.500000e-001 -9.728765e+000  8.163403e+000
      vertex  7.500000e-001 -6.350000e+000  1.099852e+001
    endloop
  endfacet
  facet normal  1.000000e+000  0.000000e+000  -0.000000e+000
    outer loop
      vertex  7.500000e-001 -8.228993e+000  1.132624e+001
      vertex  7.500000e-001 -6.350000e+000  1.099852e+001
      vertex  7.500000e-001 -4.326238e+000  1.331479e+001
    endloop
  endfacet
  facet normal  1.000000e+000  0.000000e+000  0.000000e+000
    outer loop
      vertex  7.500000e-001 -4.326238e+000  1.331479e+001
      vertex  7.500000e-001 -6.350000e+000  1.099852e+001
      vertex  7.500000e-001 -2.205332e+000  1.250706e+001
    endloop
  endfacet
  facet normal  1.000000e+000  0.000000e+000  -0.000000e+000
    outer loop
      vertex  7.500000e-001 -4.326238e+000  1.331479e+001
      vertex  7.500000e-001 -2.205332e+000  1.250706e+001
      vertex  7.500000e-001 -2.251400e-015  1.400000e+001
    endloop
  endfacet
  facet normal  0.000000e+000  9.876884e-001 -1.564344e-001
    outer loop
      vertex  0.000000e+000  1.400000e+001  0.000000e+000
      vertex  7.500000e-001  1.400000e+001  0.000000e+000
      vertex  0.000000e+000  1.331479e+001 -4.326238e+000
    endloop
  endfacet
  facet normal  0.000000e+000  9.876884e-001 -1.564344e-001
    outer loop
      vertex  0.000000e+000  1.331479e+001 -4.326238e+000
      vertex  7.500000e-001  1.400000e+001  0.000000e+000
      vertex  7.500000e-001  1.331479e+001 -4.326238e+000
    endloop
  endfacet
  facet normal  0.000000e+000  8.910065e-001 -4.539907e-001
    outer loop
      vertex  0.000000e+000  1.331479e+001 -4.326238e+000
      vertex  7.500000e-001  1.331479e+001 -4.326238e+000
      vertex  0.000000e+000  1.132624e+001 -8.228993e+000
    endloop
  endfacet
  facet normal  0.000000e+000  8.910065e-001 -4.539907e-001
    outer loop
      vertex  0.000000e+000  1.132624e+001 -8.228993e+000
      vertex  7.500000e-001  1.331479e+001 -4.326238e+000
      vertex  7.500000e-001  1.132624e+001 -8.228993e+000
    endloop
  endfacet
  facet normal  0.000000e+000  7.071068e-001 -7.071068e-001
    outer loop
      vertex  0.000000e+000  1.132624e+001 -8.228993e+000
      vertex  7.500000e-001  1.132624e+001 -8.228993e+000
      vertex  0.000000e+000  8.228993e+000 -1.132624e+001
    endloop
  endfacet
  facet normal  0.000000e+000  7.071068e-001 -7.071068e-001
    outer loop
      vertex  0.000000e+000  8.228993e+000 -1.132624e+001
      vertex  7.500000e-001  1.132624e+001 -8.228993e+000
      vertex  7.500000e-001  8.228993e+000 -1.132624e+001
    endloop
  endfacet
  facet normal  0.000000e+000  4.539907e-001 -8.910065e-001
    outer loop
      vertex  0.000000e+000  8.228993e+000 -1.132624e+001
      vertex  7.500000e-001  8.228993e+000 -1.132624e+001
      vertex  0.000000e+000  4.326238e+000 -1.331479e+001
    endloop
  endfacet
  facet normal  0.000000e+000  4.539907e-001 -8.910065e-001
    outer loop
      vertex  0.000000e+000  4.326238e+000 -1.331479e+001
      vertex  7.500000e-001  8.228993e+000 -1.132624e+001
      vertex  7.500000e-001  4.326238e+000 -1.331479e+001
    endloop
  endfacet
  facet normal  0.000000e+000  1.564344e-001 -9.876884e-001
    outer loop
      vertex  0.000000e+000  4.326238e+000 -1.331479e+001
      vertex  7.500000e-001  4.326238e+000 -1.331479e+001
      vertex  0.000000e+000 -2.571673e-015 -1.400000e+001
    endloop
  endfacet
  facet normal  0.000000e+000  1.564344e-001 -9.876884e-001
    outer loop
      vertex  0.000000e+000 -2.571673e-015 -1.400000e+001
      vertex  7.500000e-001  4.326238e+000 -1.331479e+001
      vertex  7.500000e-001 -2.571673e-015 -1.400000e+001
    endloop
  endfacet
  facet normal  -0.000000e+000 -1.564344e-001 -9.876884e-001
    outer loop
      vertex  0.000000e+000 -2.571673e-015 -1.400000e+001
      vertex  7.500000e-001 -2.571673e-015 -1.400000e+001
      vertex  0.000000e+000 -4.326238e+000 -1.331479e+001
    endloop
  endfacet
  facet normal  0.000000e+000 -1.564344e-001 -9.876884e-001
    outer loop
      vertex  0.000000e+000 -4.326238e+000 -1.331479e+001
      vertex  7.500000e-001 -2.571673e-015 -1.400000e+001
      vertex  7.500000e-001 -4.326238e+000 -1.331479e+001
    endloop
  endfacet
  facet normal  -0.000000e+000 -4.539907e-001 -8.910065e-001
    outer loop
      vertex  0.000000e+000 -4.326238e+000 -1.331479e+001
      vertex  7.500000e-001 -4.326238e+000 -1.331479e+001
      vertex  0.000000e+000 -8.228993e+000 -1.132624e+001
    endloop
  endfacet
  facet normal  0.000000e+000 -4.539907e-001 -8.910065e-001
    outer loop
      vertex  0.000000e+000 -8.228993e+000 -1.132624e+001
      vertex  7.500000e-001 -4.326238e+000 -1.331479e+001
      vertex  7.500000e-001 -8.228993e+000 -1.132624e+001
    endloop
  endfacet
  facet normal  -0.000000e+000 -7.071068e-001 -7.071068e-001
    outer loop
      vertex  0.000000e+000 -8.228993e+000 -1.132624e+001
      vertex  7.500000e-001 -8.228993e+000 -1.132624e+001
      vertex  0.000000e+000 -1.132624e+001 -8.228993e+000
    endloop
  endfacet
  facet normal  0.000000e+000 -7.071068e-001 -7.071068e-001
    outer loop
      vertex  0.000000e+000 -1.132624e+001 -8.228993e+000
      vertex  7.500000e-001 -8.228993e+000 -1.132624e+001
      vertex  7.500000e-001 -1.132624e+001 -8.228993e+000
    endloop
  endfacet
  facet normal  -0.000000e+000 -8.910065e-001 -4.539907e-001
    outer loop
      vertex  0.000000e+000 -1.132624e+001 -8.228993e+000
      vertex  7.500000e-001 -1.132624e+001 -8.228993e+000
      vertex  0.000000e+000 -1.331479e+001 -4.326238e+000
    endloop
  endfacet
  facet normal  0.000000e+000 -8.910065e-001 -4.539907e-001
    outer loop
      vertex  0.000000e+000 -1.331479e+001 -4.326238e+000
      vertex  7.500000e-001 -1.132624e+001 -8.228993e+000
      vertex  7.500000e-001 -1.331479e+001 -4.326238e+000
    endloop
  endfacet
  facet normal  -0.000000e+000 -9.876884e-001 -1.564344e-001
    outer loop
      vertex  0.000000e+000 -1.331479e+001 -4.326238e+000
      vertex  7.500000e-001 -1.331479e+001 -4.326238e+000
      vertex  0.000000e+000 -1.400000e+001 -4.502800e-015
    endloop
  endfacet
  facet normal  0.000000e+000 -9.876884e-001 -1.564344e-001
    outer loop
      vertex  0.000000e+000 -1.400000e+001 -4.502800e-015
      vertex  7.500000e-001 -1.331479e+001 -4.326238e+000
      vertex  7.500000e-001 -1.400000e+001 -4.502800e-015
    endloop
  endfacet
  facet normal  0.000000e+000 -9.876884e-001  1.564344e-001
    outer loop
      vertex  0.000000e+000 -1.400000e+001 -4.502800e-015
      vertex  7.500000e-001 -1.400000e+001 -4.502800e-015
      vertex  0.000000e+000 -1.331479e+001  4.326238e+000
    endloop
  endfacet
  facet normal  0.000000e+000 -9.876884e-001  1.564344e-001
    outer loop
      vertex  0.000000e+000 -1.331479e+001  4.326238e+000
      vertex  7.500000e-001 -1.400000e+001 -4.502800e-015
      vertex  7.500000e-001 -1.331479e+001  4.326238e+000
    endloop
  endfacet
  facet normal  0.000000e+000 -8.910065e-001  4.539907e-001
    outer loop
      vertex  0.000000e+000 -1.331479e+001  4.326238e+000
      vertex  7.500000e-001 -1.331479e+001  4.326238e+000
      vertex  0.000000e+000 -1.132624e+001  8.228993e+000
    endloop
  endfacet
  facet normal  0.000000e+000 -8.910065e-001  4.539907e-001
    outer loop
      vertex  0.000000e+000 -1.132624e+001  8.228993e+000
      vertex  7.500000e-001 -1.331479e+001  4.326238e+000
      vertex  7.500000e-001 -1.132624e+001  8.228993e+000
    endloop
  endfacet
  facet normal  0.000000e+000 -7.071068e-001  7.071068e-001
    outer loop
      vertex  0.000000e+000 -1.132624e+001  8.228993e+000
      vertex  7.500000e-001 -1.132624e+001  8.228993e+000
      vertex  0.000000e+000 -8.228993e+000  1.132624e+001
    endloop
  endfacet
  facet normal  0.000000e+000 -7.071068e-001  7.071068e-001
    outer loop
      vertex  0.000000e+000 -8.228993e+000  1.132624e+001
      vertex  7.500000e-001 -1.132624e+001  8.228993e+000
      vertex  7.500000e-001 -8.228993e+000  1.132624e+001
    endloop
  endfacet
  facet normal  0.000000e+000 -4.539907e-001  8.910065e-001
    outer loop
      vertex  0.000000e+000 -8.228993e+000  1.132624e+001
      vertex  7.500000e-001 -8.228993e+000  1.132624e+001
      vertex  0.000000e+000 -4.326238e+000  1.331479e+001
    endloop
  endfacet
  facet normal  0.000000e+000 -4.539907e-001  8.910065e-001
    outer loop
      vertex  0.000000e+000 -4.326238e+000  1.331479e+001
      vertex  7.500000e-001 -8.228993e+000  1.132624e+001
      vertex  7.500000e-001 -4.326238e+000  1.331479e+001
    endloop
  endfacet
  facet normal  0.000000e+000 -1.564344e-001  9.876884e-001
    outer loop
      vertex  0.000000e+000 -4.326238e+000  1.331479e+001
      vertex  7.500000e-001 -4.326238e+000  1.331479e+001
      vertex  0.000000e+000 -2.251400e-015  1.400000e+001
    endloop
  endfacet
  facet normal  0.000000e+000 -1.564344e-001  9.876884e-001
    outer loop
      vertex  0.000000e+000 -2.251400e-015  1.400000e+001
      vertex  7.500000e-001 -4.326238e+000  1.331479e+001
      vertex  7.500000e-001 -2.251400e-015  1.400000e+001
    endloop
  endfacet
  facet normal  0.000000e+000  1.564344e-001  9.876884e-001
    outer loop
      vertex  0.000000e+000 -2.251400e-015  1.400000e+001
      vertex  7.500000e-001 -2.251400e-015  1.400000e+001
      vertex  0.000000e+000  4.326238e+000  1.331479e+001
    endloop
  endfacet
  facet normal  -0.000000e+000  1.564344e-001  9.876884e-001
    outer loop
      vertex  0.000000e+000  4.326238e+000  1.331479e+001
      vertex  7.500000e-001 -2.251400e-015  1.400000e+001
      vertex  7.500000e-001  4.326238e+000  1.331479e+001
    endloop
  endfacet
  facet normal  0.000000e+000  4.539907e-001  8.910065e-001
    outer loop
      vertex  0.000000e+000  4.326238e+000  1.331479e+001
      vertex  7.500000e-001  4.326238e+000  1.331479e+001
      vertex  0.000000e+000  8.228993e+000  1.132624e+001
    endloop
  endfacet
  facet normal  -0.000000e+000  4.539907e-001  8.910065e-001
    outer loop
      vertex  0.000000e+000  8.228993e+000  1.132624e+001
      vertex  7.500000e-001  4.326238e+000  1.331479e+001
      vertex  7.500000e-001  8.228993e+000  1.132624e+001
    endloop
  endfacet
  facet normal  0.000000e+000  7.071068e-001  7.071068e-001
    outer loop
      vertex  0.000000e+000  8.228993e+000  1.132624e+001
      vertex  7.500000e-001  8.228993e+000  1.132624e+001
      vertex  0.000000e+000  1.132624e+001  8.228993e+000
    endloop
  endfacet
  facet normal  -0.000000e+000  7.071068e-001  7.071068e-001
    outer loop
      vertex  0.000000e+000  1.132624e+001  8.228993e+000
      vertex  7.500000e-001  8.228993e+000  1.132624e+001
      vertex  7.500000e-001  1.132624e+001  8.228993e+000
    endloop
  endfacet
  facet normal  0.000000e+000  8.910065e-001  4.539907e-001
    outer loop
      vertex  0.000000e+000  1.132624e+001  8.228993e+000
      vertex  7.500000e-001  1.132624e+001  8.228993e+000
      vertex  0.000000e+000  1.331479e+001  4.326238e+000
    endloop
  endfacet
  facet normal  -0.000000e+000  8.910065e-001  4.539907e-001
    outer loop
      vertex  0.000000e+000  1.331479e+001  4.326238e+000
      vertex  7.500000e-001  1.132624e+001  8.228993e+000
      vertex  7.500000e-001  1.331479e+001  4.326238e+000
    endloop
  endfacet
  facet normal  0.000000e+000  9.876884e-001  1.564344e-001
    outer loop
      vertex  0.000000e+000  1.331479e+001  4.326238e+000
      vertex  7.500000e-001  1.331479e+001  4.326238e+000
      vertex  0.000000e+000  1.400000e+001  0.000000e+000
    endloop
  endfacet
  facet normal  -0.000000e+000  9.876884e-001  1.564344e-001
    outer loop
      vertex  0.000000e+000  1.400000e+001  0.000000e+000
      vertex  7.500000e-001  1.331479e+001  4.326238e+000
      vertex  7.500000e-001  1.400000e+001  0.000000e+000
    endloop
  endfacet
  facet normal -1.000000e+000  0.000000e+000  -0.000000e+000
    outer loop
      vertex  5.000000e+001 -4.326238e+000 -1.331479e+001
      vertex  5.000000e+001 -2.205332e+000 -1.250706e+001
      vertex  5.000000e+001 -2.571673e-015 -1.400000e+001
    endloop
  endfacet
  facet normal -1.000000e+000  0.000000e+000  0.000000e+000
    outer loop
      vertex  5.000000e+001 -2.571673e-015 -1.400000e+001
      vertex  5.000000e+001 -2.205332e+000 -1.250706e+001
      vertex  5.000000e+001  2.205332e+000 -1.250706e+001
    endloop
  endfacet
  facet normal -1.000000e+000  0.000000e+000  -0.000000e+000
    outer loop
      vertex  5.000000e+001 -2.571673e-015 -1.400000e+001
      vertex  5.000000e+001  2.205332e+000 -1.250706e+001
      vertex  5.000000e+001  4.326238e+000 -1.331479e+001
    endloop
  endfacet
  facet normal -1.000000e+000  0.000000e+000  0.000000e+000
    outer loop
      vertex  5.000000e+001  4.326238e+000 -1.331479e+001
      vertex  5.000000e+001  2.205332e+000 -1.250706e+001
      vertex  5.000000e+001  6.350000e+000 -1.099852e+001
    endloop
  endfacet
  facet normal -1.000000e+000  0.000000e+000  -0.000000e+000
    outer loop
      vertex  5.000000e+001  4.326238e+000 -1.331479e+001
      vertex  5.000000e+001  6.350000e+000 -1.099852e+001
      vertex  5.000000e+001  8.228993e+000 -1.132624e+001
    endloop
  endfacet
  facet normal -1.000000e+000  0.000000e+000  0.000000e+000
    outer loop
      vertex  5.000000e+001  8.228993e+000 -1.132624e+001
      vertex  5.000000e+001  6.350000e+000 -1.099852e+001
      vertex  5.000000e+001  9.728765e+000 -8.163403e+000
    endloop
  endfacet
  facet normal -1.000000e+000  0.000000e+000  -0.000000e+000
    outer loop
      vertex  5.000000e+001  8.228993e+000 -1.132624e+001
      vertex  5.000000e+001  9.728765e+000 -8.163403e+000
      vertex  5.000000e+001  1.132624e+001 -8.228993e+000
    endloop
  endfacet
  facet normal -1.000000e+000  0.000000e+000  0.000000e+000
    outer loop
      vertex  5.000000e+001  1.132624e+001 -8.228993e+000
      vertex  5.000000e+001  9.728765e+000 -8.163403e+000
      vertex  5.000000e+001  1.193410e+001 -4.343656e+000
    endloop
  endfacet
  facet normal -9.999999e-001  0.000000e+000  -0.000000e+000
    outer loop
      vertex  5.000000e+001  1.132624e+001 -8.228993e+000
      vertex  5.000000e+001  1.193410e+001 -4.343656e+000
      vertex  5.000000e+001  1.331479e+001 -4.326238e+000
    endloop
  endfacet
  facet normal -9.999999e-001  -0.000000e+000  0.000000e+000
    outer loop
      vertex  5.000000e+001  1.331479e+001 -4.326238e+000
      vertex  5.000000e+001  1.193410e+001 -4.343656e+000
      vertex  5.000000e+001  1.270000e+001  0.000000e+000
    endloop
  endfacet
  facet normal -1.000000e+000  0.000000e+000  0.000000e+000
    outer loop
      vertex  5.000000e+001  1.331479e+001 -4.326238e+000
      vertex  5.000000e+001  1.270000e+001  0.000000e+000
      vertex  5.000000e+001  1.400000e+001  0.000000e+000
    endloop
  endfacet
  facet normal -1.000000e+000  0.000000e+000  0.000000e+000
    outer loop
      vertex  5.000000e+001  1.400000e+001  0.000000e+000
      vertex  5.000000e+001  1.270000e+001  0.000000e+000
      vertex  5.000000e+001  1.193410e+001  4.343656e+000
    endloop
  endfacet
  facet normal -1.000000e+000  0.000000e+000  0.000000e+000
    outer loop
      vertex  5.000000e+001  1.400000e+001  0.000000e+000
      vertex  5.000000e+001  1.193410e+001  4.343656e+000
      vertex  5.000000e+001  1.331479e+001  4.326238e+000
    endloop
  endfacet
  facet normal -1.000000e+000  0.000000e+000  0.000000e+000
    outer loop
      vertex  5.000000e+001  1.331479e+001  4.326238e+000
      vertex  5.000000e+001  1.193410e+001  4.343656e+000
      vertex  5.000000e+001  9.728765e+000  8.163403e+000
    endloop
  endfacet
  facet normal -1.000000e+000  0.000000e+000  0.000000e+000
    outer loop
      vertex  5.000000e+001  1.331479e+001  4.326238e+000
      vertex  5.000000e+001  9.728765e+000  8.163403e+000
      vertex  5.000000e+001  1.132624e+001  8.228993e+000
    endloop
  endfacet
  facet normal -1.000000e+000  -0.000000e+000  0.000000e+000
    outer loop
      vertex  5.000000e+001  1.132624e+001  8.228993e+000
      vertex  5.000000e+001  9.728765e+000  8.163403e+000
      vertex  5.000000e+001  6.350000e+000  1.099852e+001
    endloop
  endfacet
  facet normal -1.000000e+000  0.000000e+000  0.000000e+000
    outer loop
      vertex  5.000000e+001  1.132624e+001  8.228993e+000
      vertex  5.000000e+001  6.350000e+000  1.099852e+001
      vertex  5.000000e+001  8.228993e+000  1.132624e+001
    endloop
  endfacet
  facet normal -1.000000e+000  -0.000000e+000  0.000000e+000
    outer loop
      vertex  5.000000e+001  8.228993e+000  1.132624e+001
      vertex  5.000000e+001  6.350000e+000  1.099852e+001
      vertex  5.000000e+001  2.205332e+000  1.250706e+001
    endloop
  endfacet
  facet normal -9.999999e-001  0.000000e+000  0.000000e+000
    outer loop
      vertex  5.000000e+001  8.228993e+000  1.132624e+001
      vertex  5.000000e+001  2.205332e+000  1.250706e+001
      vertex  5.000000e+001  4.326238e+000  1.331479e+001
    endloop
  endfacet
  facet normal -9.999999e-001  0.000000e+000  0.000000e+000
    outer loop
      vertex  5.000000e+001  4.326238e+000  1.331479e+001
      vertex  5.000000e+001  2.205332e+000  1.250706e+001
      vertex  5.000000e+001 -2.205332e+000  1.250706e+001
    endloop
  endfacet
  facet normal -1.000000e+000  0.000000e+000  0.000000e+000
    outer loop
      vertex  5.000000e+001  4.326238e+000  1.331479e+001
      vertex  5.000000e+001 -2.205332e+000  1.250706e+001
      vertex  5.000000e+001  8.572244e-016  1.400000e+001
    endloop
  endfacet
  facet normal -1.000000e+000  0.000000e+000  0.000000e+000
    outer loop
      vertex  5.000000e+001  8.572244e-016  1.400000e+001
      vertex  5.000000e+001 -2.205332e+000  1.250706e+001
      vertex  5.000000e+001 -4.326238e+000  1.331479e+001
    endloop
  endfacet
  facet normal -1.000000e+000  0.000000e+000  -0.000000e+000
    outer loop
      vertex  5.000000e+001 -4.326238e+000  1.331479e+001
      vertex  5.000000e+001 -2.205332e+000  1.250706e+001
      vertex  5.000000e+001 -6.350000e+000  1.099852e+001
    endloop
  endfacet
  facet normal -1.000000e+000  0.000000e+000  0.000000e+000
    outer loop
      vertex  5.000000e+001 -4.326238e+000  1.331479e+001
      vertex  5.000000e+001 -6.350000e+000  1.099852e+001
      vertex  5.000000e+001 -8.228993e+000  1.132624e+001
    endloop
  endfacet
  facet normal -1.000000e+000  0.000000e+000  -0.000000e+000
    outer loop
      vertex  5.000000e+001 -8.228993e+000  1.132624e+001
      vertex  5.000000e+001 -6.350000e+000  1.099852e+001
      vertex  5.000000e+001 -9.728765e+000  8.163403e+000
    endloop
  endfacet
  facet normal -1.000000e+000  0.000000e+000  0.000000e+000
    outer loop
      vertex  5.000000e+001 -8.228993e+000  1.132624e+001
      vertex  5.000000e+001 -9.728765e+000  8.163403e+000
      vertex  5.000000e+001 -1.132624e+001  8.228993e+000
    endloop
  endfacet
  facet normal -1.000000e+000  0.000000e+000  -0.000000e+000
    outer loop
      vertex  5.000000e+001 -1.132624e+001  8.228993e+000
      vertex  5.000000e+001 -9.728765e+000  8.163403e+000
      vertex  5.000000e+001 -1.193410e+001  4.343656e+000
    endloop
  endfacet
  facet normal -9.999999e-001  -0.000000e+000  0.000000e+000
    outer loop
      vertex  5.000000e+001 -1.132624e+001  8.228993e+000
      vertex  5.000000e+001 -1.193410e+001  4.343656e+000
      vertex  5.000000e+001 -1.331479e+001  4.326238e+000
    endloop
  endfacet
  facet normal -9.999999e-001  0.000000e+000  0.000000e+000
    outer loop
      vertex  5.000000e+001 -1.331479e+001  4.326238e+000
      vertex  5.000000e+001 -1.193410e+001  4.343656e+000
      vertex  5.000000e+001 -1.270000e+001  1.555250e-015
    endloop
  endfacet
  facet normal -1.000000e+000  0.000000e+000  0.000000e+000
    outer loop
      vertex  5.000000e+001 -1.331479e+001  4.326238e+000
      vertex  5.000000e+001 -1.270000e+001  1.555250e-015
      vertex  5.000000e+001 -1.400000e+001  1.714449e-015
    endloop
  endfacet
  facet normal -1.000000e+000  0.000000e+000  0.000000e+000
    outer loop
      vertex  5.000000e+001 -1.400000e+001  1.714449e-015
      vertex  5.000000e+001 -1.270000e+001  1.555250e-015
      vertex  5.000000e+001 -1.193410e+001 -4.343656e+000
    endloop
  endfacet
  facet normal -1.000000e+000  0.000000e+000  0.000000e+000
    outer loop
      vertex  5.000000e+001 -1.400000e+001  1.714449e-015
      vertex  5.000000e+001 -1.193410e+001 -4.343656e+000
      vertex  5.000000e+001 -1.331479e+001 -4.326238e+000
    endloop
  endfacet
  facet normal -1.000000e+000  0.000000e+000  0.000000e+000
    outer loop
      vertex  5.000000e+001 -1.331479e+001 -4.326238e+000
      vertex  5.000000e+001 -1.193410e+001 -4.343656e+000
      vertex  5.000000e+001 -9.728765e+000 -8.163403e+000
    endloop
  endfacet
  facet normal -1.000000e+000  -0.000000e+000  0.000000e+000
    outer loop
      vertex  5.000000e+001 -1.331479e+001 -4.326238e+000
      vertex  5.000000e+001 -9.728765e+000 -8.163403e+000
      vertex  5.000000e+001 -1.132624e+001 -8.228993e+000
    endloop
  endfacet
  facet normal -1.000000e+000  0.000000e+000  0.000000e+000
    outer loop
      vertex  5.000000e+001 -1.132624e+001 -8.228993e+000
      vertex  5.000000e+001 -9.728765e+000 -8.163403e+000
      vertex  5.000000e+001 -6.350000e+000 -1.099852e+001
    endloop
  endfacet
  facet normal -1.000000e+000  -0.000000e+000  0.000000e+000
    outer loop
      vertex  5.000000e+001 -1.132624e+001 -8.228993e+000
      vertex  5.000000e+001 -6.350000e+000 -1.099852e+001
      vertex  5.000000e+001 -8.228993e+000 -1.132624e+001
    endloop
  endfacet
  facet normal -1.000000e+000  0.000000e+000  0.000000e+000
    outer loop
      vertex  5.000000e+001 -8.228993e+000 -1.132624e+001
      vertex  5.000000e+001 -6.350000e+000 -1.099852e+001
      vertex  5.000000e+001 -2.205332e+000 -1.250706e+001
    endloop
  endfacet
  facet normal -9.999999e-001  -0.000000e+000  0.000000e+000
    outer loop
      vertex  5.000000e+001 -8.228993e+000 -1.132624e+001
      vertex  5.000000e+001 -2.205332e+000 -1.250706e+001
      vertex  5.000000e+001 -4.326238e+000 -1.331479e+001
    endloop
  endfacet
  facet normal  0.000000e+000  9.876884e-001 -1.564344e-001
    outer loop
      vertex  5.000000e+001  1.400000e+001  0.000000e+000
      vertex  5.075000e+001  1.400000e+001  0.000000e+000
      vertex  5.000000e+001  1.331479e+001 -4.326238e+000
    endloop
  endfacet
  facet normal  0.000000e+000  9.876884e-001 -1.564344e-001
    outer loop
      vertex  5.000000e+001  1.331479e+001 -4.326238e+000
      vertex  5.075000e+001  1.400000e+001  0.000000e+000
      vertex  5.075000e+001  1.331479e+001 -4.326238e+000
    endloop
  endfacet
  facet normal  0.000000e+000  8.910065e-001 -4.539907e-001
    outer loop
      vertex  5.000000e+001  1.331479e+001 -4.326238e+000
      vertex  5.075000e+001  1.331479e+001 -4.326238e+000
      vertex  5.000000e+001  1.132624e+001 -8.228993e+000
    endloop
  endfacet
  facet normal  0.000000e+000  8.910065e-001 -4.539907e-001
    outer loop
      vertex  5.000000e+001  1.132624e+001 -8.228993e+000
      vertex  5.075000e+001  1.331479e+001 -4.326238e+000
      vertex  5.075000e+001  1.132624e+001 -8.228993e+000
    endloop
  endfacet
  facet normal  0.000000e+000  7.071068e-001 -7.071068e-001
    outer loop
      vertex  5.000000e+001  1.132624e+001 -8.228993e+000
      vertex  5.075000e+001  1.132624e+001 -8.228993e+000
      vertex  5.000000e+001  8.228993e+000 -1.132624e+001
    endloop
  endfacet
  facet normal  0.000000e+000  7.071068e-001 -7.071068e-001
    outer loop
      vertex  5.000000e+001  8.228993e+000 -1.132624e+001
      vertex  5.075000e+001  1.132624e+001 -8.228993e+000
      vertex  5.075000e+001  8.228993e+000 -1.132624e+001
    endloop
  endfacet
  facet normal  0.000000e+000  4.539907e-001 -8.910065e-001
    outer loop
      vertex  5.000000e+001  8.228993e+000 -1.132624e+001
      vertex  5.075000e+001  8.228993e+000 -1.132624e+001
      vertex  5.000000e+001  4.326238e+000 -1.331479e+001
    endloop
  endfacet
  facet normal  0.000000e+000  4.539907e-001 -8.910065e-001
    outer loop
      vertex  5.000000e+001  4.326238e+000 -1.331479e+001
      vertex  5.075000e+001  8.228993e+000 -1.132624e+001
      vertex  5.075000e+001  4.326238e+000 -1.331479e+001
    endloop
  endfacet
  facet normal  0.000000e+000  1.564344e-001 -9.876884e-001
    outer loop
      vertex  5.000000e+001  4.326238e+000 -1.331479e+001
      vertex  5.075000e+001  4.326238e+000 -1.331479e+001
      vertex  5.000000e+001 -2.571673e-015 -1.400000e+001
    endloop
  endfacet
  facet normal  0.000000e+000  1.564344e-001 -9.876884e-001
    outer loop
      vertex  5.000000e+001 -2.571673e-015 -1.400000e+001
      vertex  5.075000e+001  4.326238e+000 -1.331479e+001
      vertex  5.075000e+001 -2.571673e-015 -1.400000e+001
    endloop
  endfacet
  facet normal  -0.000000e+000 -1.564344e-001 -9.876884e-001
    outer loop
      vertex  5.000000e+001 -2.571673e-015 -1.400000e+001
      vertex  5.075000e+001 -2.571673e-015 -1.400000e+001
      vertex  5.000000e+001 -4.326238e+000 -1.331479e+001
    endloop
  endfacet
  facet normal  0.000000e+000 -1.564344e-001 -9.876884e-001
    outer loop
      vertex  5.000000e+001 -4.326238e+000 -1.331479e+001
      vertex  5.075000e+001 -2.571673e-015 -1.400000e+001
      vertex  5.075000e+001 -4.326238e+000 -1.331479e+001
    endloop
  endfacet
  facet normal  -0.000000e+000 -4.539907e-001 -8.910065e-001
    outer loop
      vertex  5.000000e+001 -4.326238e+000 -1.331479e+001
      vertex  5.075000e+001 -4.326238e+000 -1.331479e+001
      vertex  5.000000e+001 -8.228993e+000 -1.132624e+001
    endloop
  endfacet
  facet normal  0.000000e+000 -4.539907e-001 -8.910065e-001
    outer loop
      vertex  5.000000e+001 -8.228993e+000 -1.132624e+001
      vertex  5.075000e+001 -4.326238e+000 -1.331479e+001
      vertex  5.075000e+001 -8.228993e+000 -1.132624e+001
    endloop
  endfacet
  facet normal  -0.000000e+000 -7.071068e-001 -7.071068e-001
    outer loop
      vertex  5.000000e+001 -8.228993e+000 -1.132624e+001
      vertex  5.075000e+001 -8.228993e+000 -1.132624e+001
      vertex  5.000000e+001 -1.132624e+001 -8.228993e+000
    endloop
  endfacet
  facet normal  0.000000e+000 -7.071068e-001 -7.071068e-001
    outer loop
      vertex  5.000000e+001 -1.132624e+001 -8.228993e+000
      vertex  5.075000e+001 -8.228993e+000 -1.132624e+001
      vertex  5.075000e+001 -1.132624e+001 -8.228993e+000
    endloop
  endfacet
  facet normal  -0.000000e+000 -8.910065e-001 -4.539907e-001
    outer loop
      vertex  5.000000e+001 -1.132624e+001 -8.228993e+000
      vertex  5.075000e+001 -1.132624e+001 -8.228993e+000
      vertex  5.000000e+001 -1.331479e+001 -4.326238e+000
    endloop
  endfacet
  facet normal  0.000000e+000 -8.910065e-001 -4.539907e-001
    outer loop
      vertex  5.000000e+001 -1.331479e+001 -4.326238e+000
      vertex  5.075000e+001 -1.132624e+001 -8.228993e+000
      vertex  5.075000e+001 -1.331479e+001 -4.326238e+000
    endloop
  endfacet
  facet normal  -0.000000e+000 -9.876884e-001 -1.564344e-001
    outer loop
      vertex  5.000000e+001 -1.331479e+001 -4.326238e+000
      vertex  5.075000e+001 -1.331479e+001 -4.326238e+000
      vertex  5.000000e+001 -1.400000e+001  1.714449e-015
    endloop
  endfacet
  facet normal  0.000000e+000 -9.876884e-001 -1.564344e-001
    outer loop
      vertex  5.000000e+001 -1.400000e+001  1.714449e-015
      vertex  5.075000e+001 -1.331479e+001 -4.326238e+000
      vertex  5.075000e+001 -1.400000e+001  1.714449e-015
    endloop
  endfacet
  facet normal  0.000000e+000 -9.876884e-001  1.564344e-001
    outer loop
      vertex  5.000000e+001 -1.400000e+001  1.714449e-015
      vertex  5.075000e+001 -1.400000e+001  1.714449e-015
      vertex  5.000000e+001 -1.331479e+001  4.326238e+000
    endloop
  endfacet
  facet normal  0.000000e+000 -9.876884e-001  1.564344e-001
    outer loop
      vertex  5.000000e+001 -1.331479e+001  4.326238e+000
      vertex  5.075000e+001 -1.400000e+001  1.714449e-015
      vertex  5.075000e+001 -1.331479e+001  4.326238e+000
    endloop
  endfacet
  facet normal  0.000000e+000 -8.910065e-001  4.539907e-001
    outer loop
      vertex  5.000000e+001 -1.331479e+001  4.326238e+000
      vertex  5.075000e+001 -1.331479e+001  4.326238e+000
      vertex  5.000000e+001 -1.132624e+001  8.228993e+000
    endloop
  endfacet
  facet normal  0.000000e+000 -8.910065e-001  4.539907e-001
    outer loop
      vertex  5.000000e+001 -1.132624e+001  8.228993e+000
      vertex  5.075000e+001 -1.331479e+001  4.326238e+000
      vertex  5.075000e+001 -1.132624e+001  8.228993e+000
    endloop
  endfacet
  facet normal  0.000000e+000 -7.071068e-001  7.071068e-001
    outer loop
      vertex  5.000000e+001 -1.132624e+001  8.228993e+000
      vertex  5.075000e+001 -1.132624e+001  8.228993e+000
      vertex  5.000000e+001 -8.228993e+000  1.132624e+001
    endloop
  endfacet
  facet normal  0.000000e+000 -7.071068e-001  7.071068e-001
    outer loop
      vertex  5.000000e+001 -8.228993e+000  1.132624e+001
      vertex  5.075000e+001 -1.132624e+001  8.228993e+000
      vertex  5.075000e+001 -8.228993e+000  1.132624e+001
    endloop
  endfacet
  facet normal  0.000000e+000 -4.539907e-001  8.910065e-001
    outer loop
      vertex  5.000000e+001 -8.228993e+000  1.132624e+001
      vertex  5.075000e+001 -8.228993e+000  1.132624e+001
      vertex  5.000000e+001 -4.326238e+000  1.331479e+001
    endloop
  endfacet
  facet normal  0.000000e+000 -4.539907e-001  8.910065e-001
    outer loop
      vertex  5.000000e+001 -4.326238e+000  1.331479e+001
      vertex  5.075000e+001 -8.228993e+000  1.132624e+001
      vertex  5.075000e+001 -4.326238e+000  1.331479e+001
    endloop
  endfacet
  facet normal  0.000000e+000 -1.564344e-001  9.876884e-001
    outer loop
      vertex  5.000000e+001 -4.326238e+000  1.331479e+001
      vertex  5.075000e+001 -4.326238e+000  1.331479e+001
      vertex  5.000000e+001  8.572244e-016  1.400000e+001
    endloop
  endfacet
  facet normal  0.000000e+000 -1.564344e-001  9.876884e-001
    outer loop
      vertex  5.000000e+001  8.572244e-016  1.400000e+001
      vertex  5.075000e+001 -4.326238e+000  1.331479e+001
      vertex  5.075000e+001  8.572244e-016  1.400000e+001
    endloop
  endfacet
  facet normal  0.000000e+000  1.564344e-001  9.876884e-001
    outer loop
      vertex  5.000000e+001  8.572244e-016  1.400000e+001
      vertex  5.075000e+001  8.572244e-016  1.400000e+001
      vertex  5.000000e+001  4.326238e+000  1.331479e+001
    endloop
  endfacet
  facet normal  -0.000000e+000  1.564344e-001  9.876884e-001
    outer loop
      vertex  5.000000e+001  4.326238e+000  1.331479e+001
      vertex  5.075000e+001  8.572244e-016  1.400000e+001
      vertex  5.075000e+001  4.326238e+000  1.331479e+001
    endloop
  endfacet
  facet normal  0.000000e+000  4.539907e-001  8.910065e-001
    outer loop
      vertex  5.000000e+001  4.326238e+000  1.331479e+001
      vertex  5.075000e+001  4.326238e+000  1.331479e+001
      vertex  5.000000e+001  8.228993e+000  1.132624e+001
    endloop
  endfacet
  facet normal  -0.000000e+000  4.539907e-001  8.910065e-001
    outer loop
      vertex  5.000000e+001  8.228993e+000  1.132624e+001
      vertex  5.075000e+001  4.326238e+000  1.331479e+001
      vertex  5.075000e+001  8.228993e+000  1.132624e+001
    endloop
  endfacet
  facet normal  0.000000e+000  7.071068e-001  7.071068e-001
    outer loop
      vertex  5.000000e+001  8.228993e+000  1.132624e+001
      vertex  5.075000e+001  8.228993e+000  1.132624e+001
      vertex  5.000000e+001  1.132624e+001  8.228993e+000
    endloop
  endfacet
  facet normal  -0.000000e+000  7.071068e-001  7.071068e-001
    outer loop
      vertex  5.000000e+001  1.132624e+001  8.228993e+000
      vertex  5.075000e+001  8.228993e+000  1.132624e+001
      vertex  5.075000e+001  1.132624e+001  8.228993e+000
    endloop
  endfacet
  facet normal  0.000000e+000  8.910065e-001  4.539907e-001
    outer loop
      vertex  5.000000e+001  1.132624e+001  8.228993e+000
      vertex  5.075000e+001  1.132624e+001  8.228993e+000
      vertex  5.000000e+001  1.331479e+001  4.326238e+000
    endloop
  endfacet
  facet normal  -0.000000e+000  8.910065e-001  4.539907e-001
    outer loop
      vertex  5.000000e+001  1.331479e+001  4.326238e+000
      vertex  5.075000e+001  1.132624e+001  8.228993e+000
      vertex  5.075000e+001  1.331479e+001  4.326238e+000
    endloop
  endfacet
  facet normal  0.000000e+000  9.876884e-001  1.564344e-001
    outer loop
      vertex  5.000000e+001  1.331479e+001  4.326238e+000
      vertex  5.075000e+001  1.331479e+001  4.326238e+000
      vertex  5.000000e+001  1.400000e+001  0.000000e+000
    endloop
  endfacet
  facet normal  -0.000000e+000  9.876884e-001  1.564344e-001
    outer loop
      vertex  5.000000e+001  1.400000e+001  0.000000e+000
      vertex  5.075000e+001  1.331479e+001  4.326238e+000
      vertex  5.075000e+001  1.400000e+001  0.000000e+000
    endloop
  endfacet
endsolid CATIA STL
